{"glyphs":{"0":{"ha":1144,"x_min":0,"x_max":0,"o":"m 703 904 b 206 390 410 904 206 694 b 594 -8 206 156 365 -8 b 1093 508 888 -8 1093 203 b 703 904 1093 742 933 904 z m 241 392 b 698 873 241 676 428 873 b 1058 508 910 873 1058 724 b 595 24 1058 222 868 24 b 241 392 386 24 241 175 z "},"1":{"ha":535,"x_min":0,"x_max":0,"o":"m 444 863 l 294 0 l 328 0 l 483 895 l 448 895 l 220 852 l 223 822 z "},"2":{"ha":927,"x_min":0,"x_max":0,"o":"m 624 465 l 418 397 b 142 124 230 335 172 293 l 120 0 l 833 0 l 838 31 l 158 31 l 172 108 b 424 364 200 275 258 308 l 629 432 b 923 710 860 508 923 559 b 667 905 923 839 849 905 b 308 836 515 905 376 863 l 319 806 b 667 874 394 833 539 874 b 888 713 813 874 888 828 b 624 465 888 584 848 540 z "},"3":{"ha":931,"x_min":0,"x_max":0,"o":"m 456 -8 b 872 271 638 -8 872 60 b 726 466 872 398 822 451 b 903 699 823 495 903 574 b 636 904 903 852 790 904 b 277 835 478 904 354 865 l 288 806 b 633 873 358 833 497 873 b 868 699 802 873 868 808 b 631 475 868 594 778 475 l 353 475 l 348 444 l 632 444 b 837 267 778 444 837 402 b 449 24 837 103 649 24 b 102 94 290 24 188 58 l 88 64 b 456 -8 174 21 284 -8 z "},"4":{"ha":911,"x_min":0,"x_max":0,"o":"m 702 198 l 668 0 l 701 0 l 735 198 l 905 198 l 910 227 l 740 227 l 856 895 l 817 895 l 124 226 l 119 198 z m 169 227 l 815 852 l 707 227 z "},"5":{"ha":951,"x_min":0,"x_max":0,"o":"m 149 92 l 133 64 b 493 -7 216 21 328 -7 b 879 324 690 -7 879 82 b 606 563 879 477 790 563 b 282 496 449 563 348 524 l 373 865 l 917 865 l 923 895 l 350 895 l 245 479 l 268 458 b 605 532 381 506 467 532 b 844 324 768 532 844 456 b 497 24 844 97 660 24 b 149 92 337 24 233 54 z "},"6":{"ha":1031,"x_min":0,"x_max":0,"o":"m 734 904 b 201 351 406 904 201 678 b 560 -8 201 103 357 -8 b 988 347 871 -8 988 186 b 671 588 988 526 848 588 b 233 351 474 588 294 465 b 731 873 233 657 426 873 b 972 832 848 873 901 856 l 985 860 b 734 904 933 881 867 904 z m 238 313 b 671 556 314 446 492 556 b 953 353 829 556 953 496 b 563 24 953 78 695 24 b 238 313 423 24 258 86 z "},"7":{"ha":794,"x_min":0,"x_max":0,"o":"m 175 26 l 203 3 l 884 865 l 884 895 l 198 895 l 192 865 l 842 865 z "},"8":{"ha":1026,"x_min":0,"x_max":0,"o":"m 467 451 b 174 195 335 430 174 358 b 526 -8 174 60 273 -8 b 965 242 744 -8 965 65 b 744 453 965 369 900 432 b 992 690 835 469 992 532 b 669 904 992 828 872 904 b 291 646 460 904 291 808 b 467 451 291 533 360 483 z m 209 199 b 610 431 209 360 393 431 b 931 241 859 431 931 365 b 535 24 931 85 714 24 b 209 199 309 24 209 76 z m 326 648 b 667 872 326 785 472 872 b 957 690 839 872 957 812 b 603 463 957 539 759 463 b 326 648 451 463 326 521 z "},"9":{"ha":1047,"x_min":0,"x_max":0,"o":"m 469 -8 b 1002 559 797 -8 1002 224 b 643 904 1002 798 847 904 b 216 563 333 904 216 717 b 533 337 216 394 355 337 b 971 559 725 337 908 449 b 473 24 971 245 778 24 b 205 78 349 24 273 48 l 190 50 b 469 -8 235 26 322 -8 z m 251 557 b 640 873 251 819 508 873 b 965 598 781 873 946 813 b 533 368 888 469 709 368 b 251 557 374 368 251 424 z "}," ":{"ha":410,"x_min":0,"x_max":0,"o":""},"A":{"ha":1015,"x_min":0,"x_max":0,"o":"m 60 16 l 88 -5 l 245 233 l 873 233 l 949 -3 l 983 8 l 689 895 l 646 895 z m 266 263 l 665 866 l 863 263 z "},"À":{"ha":1015,"x_min":0,"x_max":0,"o":"m 60 16 l 88 -5 l 245 233 l 873 233 l 949 -3 l 983 8 l 689 895 l 646 895 z m 266 263 l 665 866 l 863 263 z m 458 1142 l 672 1008 l 689 1033 l 481 1174 z "},"Á":{"ha":1015,"x_min":0,"x_max":0,"o":"m 60 16 l 88 -5 l 245 233 l 873 233 l 949 -3 l 983 8 l 689 895 l 646 895 z m 266 263 l 665 866 l 863 263 z m 659 1038 l 672 1009 l 960 1138 l 945 1171 z "},"Â":{"ha":1015,"x_min":0,"x_max":0,"o":"m 60 16 l 88 -5 l 245 233 l 873 233 l 949 -3 l 983 8 l 689 895 l 646 895 z m 266 263 l 665 866 l 863 263 z m 479 1032 l 500 1009 l 699 1182 l 840 1009 l 863 1029 l 717 1206 l 684 1206 z "},"Ã":{"ha":1015,"x_min":0,"x_max":0,"o":"m 60 16 l 88 -5 l 245 233 l 873 233 l 949 -3 l 983 8 l 689 895 l 646 895 z m 266 263 l 665 866 l 863 263 z m 456 1035 l 479 1018 b 588 1093 522 1072 557 1093 b 671 1055 616 1093 628 1084 b 780 1013 717 1022 744 1013 b 912 1101 828 1013 863 1033 l 888 1117 b 780 1042 849 1064 820 1042 b 690 1079 751 1042 729 1053 b 588 1123 637 1116 622 1123 b 456 1035 551 1123 507 1102 z "},"Ä":{"ha":1015,"x_min":0,"x_max":0,"o":"m 60 16 l 88 -5 l 245 233 l 873 233 l 949 -3 l 983 8 l 689 895 l 646 895 z m 266 263 l 665 866 l 863 263 z m 574 1028 l 606 1028 l 621 1112 l 588 1112 z m 749 1028 l 781 1028 l 796 1112 l 763 1112 z "},"Å":{"ha":1015,"x_min":0,"x_max":0,"o":"m 60 16 l 88 -5 l 245 233 l 873 233 l 949 -3 l 983 8 l 689 895 l 646 895 z m 266 263 l 665 866 l 863 263 z m 571 1094 b 682 997 571 1033 612 997 b 825 1115 765 997 825 1047 b 712 1214 825 1177 783 1214 b 571 1094 628 1214 571 1163 z m 603 1097 b 708 1186 603 1147 649 1186 b 793 1111 764 1186 793 1160 b 685 1025 793 1063 744 1025 b 603 1097 630 1025 603 1049 z "},"Ā":{"ha":1015,"x_min":0,"x_max":0,"o":"m 60 16 l 88 -5 l 245 233 l 873 233 l 949 -3 l 983 8 l 689 895 l 646 895 z m 266 263 l 665 866 l 863 263 z m 510 1028 l 863 1028 l 867 1058 l 515 1058 z "},"Ă":{"ha":1015,"x_min":0,"x_max":0,"o":"m 60 16 l 88 -5 l 245 233 l 873 233 l 949 -3 l 983 8 l 689 895 l 646 895 z m 266 263 l 665 866 l 863 263 z m 535 1156 b 684 1009 535 1067 574 1009 b 892 1186 803 1009 860 1067 l 863 1192 b 685 1038 828 1077 772 1038 b 565 1163 608 1038 565 1067 b 566 1192 565 1172 565 1181 l 538 1192 b 535 1156 536 1179 535 1167 z "},"Ą":{"ha":1090,"x_min":0,"x_max":0,"o":"m 914 -278 b 1008 -258 951 -278 981 -271 l 999 -235 b 919 -253 976 -246 949 -253 b 824 -167 858 -253 824 -223 b 983 8 824 -100 859 -50 l 689 895 l 646 895 l 60 16 l 88 -5 l 245 233 l 873 233 l 943 15 b 792 -166 835 -34 792 -96 b 914 -278 792 -242 840 -278 z m 266 263 l 665 866 l 863 263 z "},"Ǻ":{"ha":1015,"x_min":0,"x_max":0,"o":"m 60 16 l 88 -5 l 245 233 l 873 233 l 949 -3 l 983 8 l 689 895 l 646 895 z m 266 263 l 665 866 l 863 263 z m 574 1028 b 685 931 574 967 615 931 b 828 1049 767 931 828 981 b 715 1148 828 1111 785 1148 b 574 1028 631 1148 574 1097 z m 606 1031 b 711 1120 606 1081 651 1120 b 796 1045 767 1120 796 1094 b 688 959 796 997 747 959 b 606 1031 633 959 606 983 z m 619 1194 l 632 1165 l 920 1294 l 905 1327 z "},"B":{"ha":1133,"x_min":0,"x_max":0,"o":"m 791 896 l 341 896 l 186 0 l 631 0 b 1051 268 906 0 1051 100 b 871 474 1051 400 984 458 b 1088 710 978 499 1088 583 b 791 896 1088 844 986 896 z m 225 31 l 298 453 l 801 453 b 1019 263 961 453 1019 381 b 638 31 1019 128 881 31 z m 303 483 l 369 865 l 787 865 b 1056 710 971 865 1056 815 b 776 483 1056 592 916 483 z "},"C":{"ha":1100,"x_min":0,"x_max":0,"o":"m 611 -8 b 979 77 750 -8 865 26 l 965 107 b 604 24 845 54 744 24 b 233 366 394 24 233 149 b 756 873 233 690 468 873 b 1077 807 868 873 962 853 l 1092 838 b 755 904 1001 874 897 904 b 198 365 464 904 198 713 b 611 -8 198 119 380 -8 z "},"Ç":{"ha":1100,"x_min":0,"x_max":0,"o":"m 424 -237 l 417 -264 b 511 -277 437 -271 472 -277 b 681 -135 613 -277 681 -228 b 622 -8 681 -81 665 -36 b 979 77 756 -6 867 27 l 965 107 b 604 24 845 54 744 24 b 233 366 394 24 233 149 b 756 873 233 690 468 873 b 1077 807 868 873 962 853 l 1092 838 b 755 904 1001 874 897 904 b 198 365 464 904 198 713 b 568 -6 198 134 358 9 b 649 -134 642 -37 649 -84 b 515 -251 649 -224 576 -251 b 424 -237 481 -251 445 -244 z "},"Ć":{"ha":1100,"x_min":0,"x_max":0,"o":"m 755 1038 l 768 1009 l 1056 1138 l 1041 1171 z m 198 365 b 611 -8 198 119 380 -8 b 979 77 750 -8 865 26 l 965 107 b 604 24 845 54 744 24 b 233 366 394 24 233 149 b 756 873 233 690 468 873 b 1077 807 868 873 962 853 l 1092 838 b 755 904 1001 874 897 904 b 198 365 464 904 198 713 z "},"Ĉ":{"ha":1100,"x_min":0,"x_max":0,"o":"m 588 1032 l 609 1009 l 808 1182 l 949 1009 l 972 1029 l 826 1206 l 793 1206 z m 198 365 b 611 -8 198 119 380 -8 b 979 77 750 -8 865 26 l 965 107 b 604 24 845 54 744 24 b 233 366 394 24 233 149 b 756 873 233 690 468 873 b 1077 807 868 873 962 853 l 1092 838 b 755 904 1001 874 897 904 b 198 365 464 904 198 713 z "},"Ċ":{"ha":1100,"x_min":0,"x_max":0,"o":"m 611 -8 b 979 77 750 -8 865 26 l 965 107 b 604 24 845 54 744 24 b 233 366 394 24 233 149 b 756 873 233 690 468 873 b 1077 807 868 873 962 853 l 1092 838 b 755 904 1001 874 897 904 b 198 365 464 904 198 713 b 611 -8 198 119 380 -8 z m 771 1028 l 803 1028 l 818 1112 l 785 1112 z "},"Č":{"ha":1100,"x_min":0,"x_max":0,"o":"m 623 1191 l 769 1014 l 802 1014 l 1004 1186 l 986 1210 l 786 1040 l 646 1211 z m 198 365 b 611 -8 198 119 380 -8 b 979 77 750 -8 865 26 l 965 107 b 604 24 845 54 744 24 b 233 366 394 24 233 149 b 756 873 233 690 468 873 b 1077 807 868 873 962 853 l 1092 838 b 755 904 1001 874 897 904 b 198 365 464 904 198 713 z "},"D":{"ha":1149,"x_min":0,"x_max":0,"o":"m 186 0 l 533 0 b 1103 541 961 0 1103 219 b 694 895 1103 806 947 895 l 341 895 z m 225 31 l 367 865 l 690 865 b 1069 534 949 865 1069 771 b 540 31 1069 210 908 31 z "},"Ď":{"ha":1149,"x_min":0,"x_max":0,"o":"m 533 1191 l 680 1014 l 713 1014 l 915 1186 l 897 1210 l 697 1040 l 556 1211 z m 186 0 l 533 0 b 1103 541 961 0 1103 219 b 694 895 1103 806 947 895 l 341 895 z m 225 31 l 367 865 l 690 865 b 1069 534 949 865 1069 771 b 540 31 1069 210 908 31 z "},"E":{"ha":1022,"x_min":0,"x_max":0,"o":"m 341 895 l 186 0 l 922 0 l 927 31 l 225 31 l 294 435 l 873 435 l 878 466 l 300 466 l 369 865 l 1057 865 l 1063 895 z "},"È":{"ha":1022,"x_min":0,"x_max":0,"o":"m 341 895 l 186 0 l 922 0 l 927 31 l 225 31 l 294 435 l 873 435 l 878 466 l 300 466 l 369 865 l 1057 865 l 1063 895 z m 578 1142 l 792 1008 l 810 1033 l 601 1174 z "},"É":{"ha":1022,"x_min":0,"x_max":0,"o":"m 652 1038 l 665 1009 l 953 1138 l 938 1171 z m 186 0 l 922 0 l 927 31 l 225 31 l 294 435 l 873 435 l 878 466 l 300 466 l 369 865 l 1057 865 l 1063 895 l 341 895 z "},"Ê":{"ha":1022,"x_min":0,"x_max":0,"o":"m 527 1032 l 548 1009 l 747 1182 l 888 1009 l 911 1029 l 765 1206 l 732 1206 z m 186 0 l 922 0 l 927 31 l 225 31 l 294 435 l 873 435 l 878 466 l 300 466 l 369 865 l 1057 865 l 1063 895 l 341 895 z "},"Ë":{"ha":1022,"x_min":0,"x_max":0,"o":"m 341 895 l 186 0 l 922 0 l 927 31 l 225 31 l 294 435 l 873 435 l 878 466 l 300 466 l 369 865 l 1057 865 l 1063 895 z m 613 1028 l 646 1028 l 660 1112 l 628 1112 z m 788 1028 l 821 1028 l 835 1112 l 803 1112 z "},"Ē":{"ha":1022,"x_min":0,"x_max":0,"o":"m 341 895 l 186 0 l 922 0 l 927 31 l 225 31 l 294 435 l 873 435 l 878 466 l 300 466 l 369 865 l 1057 865 l 1063 895 z m 563 1028 l 915 1028 l 920 1058 l 567 1058 z "},"Ĕ":{"ha":1022,"x_min":0,"x_max":0,"o":"m 341 895 l 186 0 l 922 0 l 927 31 l 225 31 l 294 435 l 873 435 l 878 466 l 300 466 l 369 865 l 1057 865 l 1063 895 z m 598 1156 b 747 1009 598 1067 636 1009 b 955 1186 866 1009 922 1067 l 926 1192 b 747 1038 890 1077 835 1038 b 627 1163 670 1038 627 1067 b 628 1192 627 1172 628 1181 l 600 1192 b 598 1156 599 1179 598 1167 z "},"Ė":{"ha":1022,"x_min":0,"x_max":0,"o":"m 341 895 l 186 0 l 922 0 l 927 31 l 225 31 l 294 435 l 873 435 l 878 466 l 300 466 l 369 865 l 1057 865 l 1063 895 z m 716 1028 l 749 1028 l 763 1112 l 731 1112 z "},"Ę":{"ha":1069,"x_min":0,"x_max":0,"o":"m 798 -278 b 891 -258 835 -278 863 -271 l 882 -235 b 803 -253 858 -246 832 -253 b 722 -175 753 -253 722 -225 b 922 0 722 -108 763 -58 l 927 31 l 225 31 l 294 435 l 873 435 l 878 466 l 300 466 l 369 865 l 1057 865 l 1063 895 l 341 895 l 186 0 l 859 0 b 690 -174 735 -46 690 -107 b 798 -278 690 -244 733 -278 z "},"Ě":{"ha":1022,"x_min":0,"x_max":0,"o":"m 564 1191 l 710 1014 l 743 1014 l 945 1186 l 927 1210 l 727 1040 l 587 1211 z m 186 0 l 922 0 l 927 31 l 225 31 l 294 435 l 873 435 l 878 466 l 300 466 l 369 865 l 1057 865 l 1063 895 l 341 895 z "},"F":{"ha":951,"x_min":0,"x_max":0,"o":"m 341 895 l 186 0 l 219 0 l 290 412 l 836 412 l 842 442 l 296 442 l 369 865 l 1042 865 l 1047 895 z "},"G":{"ha":1147,"x_min":0,"x_max":0,"o":"m 607 -8 b 996 73 750 -8 856 19 l 1056 417 l 665 417 l 659 387 l 1018 387 l 968 97 b 606 24 834 47 749 24 b 232 363 393 24 232 138 b 756 873 232 712 497 873 b 1078 821 875 873 966 859 l 1091 852 b 772 904 992 883 905 904 b 197 362 481 904 197 733 b 607 -8 198 117 369 -8 z "},"Ĝ":{"ha":1147,"x_min":0,"x_max":0,"o":"m 574 1032 l 595 1009 l 794 1182 l 935 1009 l 958 1029 l 812 1206 l 779 1206 z m 197 362 b 607 -8 198 117 369 -8 b 996 73 750 -8 856 19 l 1056 417 l 665 417 l 659 387 l 1018 387 l 968 97 b 606 24 834 47 749 24 b 232 363 393 24 232 138 b 756 873 232 712 497 873 b 1078 821 875 873 966 859 l 1091 852 b 772 904 992 883 905 904 b 197 362 481 904 197 733 z "},"Ğ":{"ha":1147,"x_min":0,"x_max":0,"o":"m 607 -8 b 996 73 750 -8 856 19 l 1056 417 l 665 417 l 659 387 l 1018 387 l 968 97 b 606 24 834 47 749 24 b 232 363 393 24 232 138 b 756 873 232 712 497 873 b 1078 821 875 873 966 859 l 1091 852 b 772 904 992 883 905 904 b 197 362 481 904 197 733 b 607 -8 198 117 369 -8 z m 625 1156 b 774 1009 625 1067 663 1009 b 982 1186 893 1009 949 1067 l 953 1192 b 774 1038 917 1077 862 1038 b 654 1163 697 1038 654 1067 b 656 1192 654 1172 655 1181 l 627 1192 b 625 1156 626 1179 625 1167 z "},"Ġ":{"ha":1147,"x_min":0,"x_max":0,"o":"m 607 -8 b 996 73 750 -8 856 19 l 1056 417 l 665 417 l 659 387 l 1018 387 l 968 97 b 606 24 834 47 749 24 b 232 363 393 24 232 138 b 756 873 232 712 497 873 b 1078 821 875 873 966 859 l 1091 852 b 772 904 992 883 905 904 b 197 362 481 904 197 733 b 607 -8 198 117 369 -8 z m 763 1028 l 795 1028 l 810 1112 l 777 1112 z "},"Ģ":{"ha":1147,"x_min":0,"x_max":0,"o":"m 551 -362 l 626 -245 l 651 -106 l 619 -106 l 597 -231 l 526 -344 z m 197 362 b 607 -8 198 117 369 -8 b 996 73 750 -8 856 19 l 1056 417 l 665 417 l 659 387 l 1018 387 l 968 97 b 606 24 834 47 749 24 b 232 363 393 24 232 138 b 756 873 232 712 497 873 b 1078 821 875 873 966 859 l 1091 852 b 772 904 992 883 905 904 b 197 362 481 904 197 733 z "},"H":{"ha":1247,"x_min":0,"x_max":0,"o":"m 341 895 l 186 0 l 219 0 l 290 418 l 1098 418 l 1027 0 l 1060 0 l 1215 895 l 1182 895 l 1105 449 l 297 449 l 374 895 z "},"Ĥ":{"ha":1247,"x_min":0,"x_max":0,"o":"m 604 1032 l 625 1009 l 824 1182 l 965 1009 l 988 1029 l 842 1206 l 809 1206 z m 186 0 l 219 0 l 290 418 l 1098 418 l 1027 0 l 1060 0 l 1215 895 l 1182 895 l 1105 449 l 297 449 l 374 895 l 341 895 z "},"I":{"ha":406,"x_min":0,"x_max":0,"o":"m 341 895 l 186 0 l 219 0 l 374 895 z "},"Ì":{"ha":406,"x_min":0,"x_max":0,"o":"m 341 895 l 186 0 l 219 0 l 374 895 z m 167 1142 l 381 1008 l 399 1033 l 190 1174 z "},"Í":{"ha":406,"x_min":0,"x_max":0,"o":"m 341 895 l 186 0 l 219 0 l 374 895 z m 356 1038 l 369 1009 l 658 1138 l 642 1171 z "},"Î":{"ha":406,"x_min":0,"x_max":0,"o":"m 341 895 l 186 0 l 219 0 l 374 895 z m 179 1032 l 200 1009 l 399 1182 l 540 1009 l 563 1029 l 417 1206 l 384 1206 z "},"Ï":{"ha":406,"x_min":0,"x_max":0,"o":"m 341 895 l 186 0 l 219 0 l 374 895 z m 274 1028 l 306 1028 l 321 1112 l 288 1112 z m 449 1028 l 481 1028 l 496 1112 l 463 1112 z "},"Ĩ":{"ha":406,"x_min":0,"x_max":0,"o":"m 341 895 l 186 0 l 219 0 l 374 895 z m 160 1035 l 183 1018 b 292 1093 226 1072 261 1093 b 375 1055 320 1093 333 1084 b 484 1013 422 1022 449 1013 b 616 1101 533 1013 567 1033 l 592 1117 b 484 1042 553 1064 524 1042 b 394 1079 455 1042 433 1053 b 292 1123 341 1116 326 1123 b 160 1035 255 1123 211 1102 z "},"Ī":{"ha":406,"x_min":0,"x_max":0,"o":"m 341 895 l 186 0 l 219 0 l 374 895 z m 204 1028 l 557 1028 l 562 1058 l 209 1058 z "},"Ĭ":{"ha":406,"x_min":0,"x_max":0,"o":"m 341 895 l 186 0 l 219 0 l 374 895 z m 232 1156 b 381 1009 232 1067 270 1009 b 589 1186 500 1009 556 1067 l 560 1192 b 381 1038 524 1077 469 1038 b 261 1163 304 1038 261 1067 b 263 1192 261 1172 262 1181 l 234 1192 b 232 1156 233 1179 232 1167 z "},"Į":{"ha":406,"x_min":0,"x_max":0,"o":"m 158 -278 b 252 -258 195 -278 224 -271 l 243 -235 b 163 -253 219 -246 193 -253 b 68 -167 101 -253 68 -223 b 219 0 68 -104 103 -53 l 374 895 l 341 895 l 188 10 b 36 -166 78 -39 36 -99 b 158 -278 36 -242 84 -278 z "},"İ":{"ha":406,"x_min":0,"x_max":0,"o":"m 341 895 l 186 0 l 219 0 l 374 895 z m 360 1028 l 393 1028 l 408 1112 l 375 1112 z "},"J":{"ha":856,"x_min":0,"x_max":0,"o":"m 143 90 l 125 58 b 391 -8 175 28 263 -8 b 738 269 522 -8 699 44 l 847 895 l 813 895 l 709 286 b 387 24 678 104 547 24 b 143 90 277 24 185 64 z "},"Ĵ":{"ha":856,"x_min":0,"x_max":0,"o":"m 648 1032 l 669 1009 l 867 1182 l 1009 1009 l 1032 1029 l 885 1206 l 853 1206 z m 125 58 b 391 -8 175 28 263 -8 b 738 269 522 -8 699 44 l 847 895 l 813 895 l 709 286 b 387 24 678 104 547 24 b 143 90 277 24 185 64 z "},"K":{"ha":1140,"x_min":0,"x_max":0,"o":"m 740 504 l 1054 -8 l 1083 12 l 767 526 l 1227 879 l 1206 906 l 248 165 l 374 895 l 341 895 l 186 0 l 219 0 l 240 120 z "},"Ķ":{"ha":1140,"x_min":0,"x_max":0,"o":"m 538 -362 l 613 -245 l 638 -106 l 606 -106 l 584 -231 l 513 -344 z m 186 0 l 219 0 l 240 120 l 740 504 l 1054 -8 l 1083 12 l 767 526 l 1227 879 l 1206 906 l 248 165 l 374 895 l 341 895 z "},"L":{"ha":915,"x_min":0,"x_max":0,"o":"m 341 895 l 186 0 l 888 0 l 893 29 l 224 29 l 374 895 z "},"Ĺ":{"ha":915,"x_min":0,"x_max":0,"o":"m 356 1038 l 369 1009 l 657 1138 l 642 1171 z m 186 0 l 888 0 l 893 29 l 224 29 l 374 895 l 341 895 z "},"Ļ":{"ha":915,"x_min":0,"x_max":0,"o":"m 456 -362 l 532 -246 l 556 -107 l 524 -107 l 503 -231 l 431 -345 z m 186 0 l 888 0 l 893 29 l 224 29 l 374 895 l 341 895 z "},"Ľ":{"ha":915,"x_min":0,"x_max":0,"o":"m 712 898 l 649 680 l 674 672 l 742 889 z m 186 0 l 888 0 l 893 29 l 224 29 l 374 895 l 341 895 z "},"M":{"ha":1452,"x_min":0,"x_max":0,"o":"m 341 895 l 186 0 l 219 0 l 367 851 l 738 60 l 775 60 l 1381 858 l 1233 0 l 1266 0 l 1421 895 l 1366 895 l 761 94 l 387 895 z "},"N":{"ha":1179,"x_min":0,"x_max":0,"o":"m 341 895 l 186 0 l 219 0 l 368 860 l 948 0 l 993 0 l 1148 895 l 1115 895 l 965 33 l 384 895 z "},"Ñ":{"ha":1179,"x_min":0,"x_max":0,"o":"m 341 895 l 186 0 l 219 0 l 368 860 l 948 0 l 993 0 l 1148 895 l 1115 895 l 965 33 l 384 895 z m 541 1035 l 564 1018 b 673 1093 606 1072 642 1093 b 756 1055 701 1093 713 1084 b 865 1013 802 1022 829 1013 b 997 1101 913 1013 948 1033 l 973 1117 b 865 1042 934 1064 905 1042 b 775 1079 835 1042 814 1053 b 673 1123 722 1116 707 1123 b 541 1035 635 1123 592 1102 z "},"Ń":{"ha":1179,"x_min":0,"x_max":0,"o":"m 759 1038 l 772 1009 l 1060 1138 l 1045 1171 z m 186 0 l 219 0 l 368 860 l 948 0 l 993 0 l 1148 895 l 1115 895 l 965 33 l 384 895 l 341 895 z "},"Ņ":{"ha":1179,"x_min":0,"x_max":0,"o":"m 516 -362 l 592 -245 l 616 -106 l 584 -106 l 563 -231 l 491 -344 z m 186 0 l 219 0 l 368 860 l 948 0 l 993 0 l 1148 895 l 1115 895 l 965 33 l 384 895 l 341 895 z "},"Ň":{"ha":1179,"x_min":0,"x_max":0,"o":"m 606 1191 l 752 1014 l 785 1014 l 987 1186 l 969 1210 l 769 1040 l 628 1211 z m 186 0 l 219 0 l 368 860 l 948 0 l 993 0 l 1148 895 l 1115 895 l 965 33 l 384 895 l 341 895 z "},"O":{"ha":1256,"x_min":0,"x_max":0,"o":"m 773 904 b 199 381 424 904 199 675 b 642 -8 199 156 353 -8 b 1208 496 1045 -8 1208 219 b 773 904 1208 763 1033 904 z m 234 379 b 769 873 234 642 427 873 b 1173 498 1024 873 1173 731 b 647 24 1173 222 1009 24 b 234 379 381 24 234 174 z "},"Ò":{"ha":1256,"x_min":0,"x_max":0,"o":"m 773 904 b 199 381 424 904 199 675 b 642 -8 199 156 353 -8 b 1208 496 1045 -8 1208 219 b 773 904 1208 763 1033 904 z m 234 379 b 769 873 234 642 427 873 b 1173 498 1024 873 1173 731 b 647 24 1173 222 1009 24 b 234 379 381 24 234 174 z m 637 1142 l 851 1008 l 868 1033 l 660 1174 z "},"Ó":{"ha":1256,"x_min":0,"x_max":0,"o":"m 743 1038 l 756 1009 l 1044 1138 l 1029 1171 z m 199 381 b 642 -8 199 156 353 -8 b 1208 496 1045 -8 1208 219 b 773 904 1208 763 1033 904 b 199 381 424 904 199 675 z m 234 379 b 769 873 234 642 427 873 b 1173 498 1024 873 1173 731 b 647 24 1173 222 1009 24 b 234 379 381 24 234 174 z "},"Ô":{"ha":1256,"x_min":0,"x_max":0,"o":"m 590 1032 l 611 1009 l 810 1182 l 951 1009 l 974 1029 l 828 1206 l 795 1206 z m 199 381 b 642 -8 199 156 353 -8 b 1208 496 1045 -8 1208 219 b 773 904 1208 763 1033 904 b 199 381 424 904 199 675 z m 234 379 b 769 873 234 642 427 873 b 1173 498 1024 873 1173 731 b 647 24 1173 222 1009 24 b 234 379 381 24 234 174 z "},"Õ":{"ha":1256,"x_min":0,"x_max":0,"o":"m 773 904 b 199 381 424 904 199 675 b 642 -8 199 156 353 -8 b 1208 496 1045 -8 1208 219 b 773 904 1208 763 1033 904 z m 234 379 b 769 873 234 642 427 873 b 1173 498 1024 873 1173 731 b 647 24 1173 222 1009 24 b 234 379 381 24 234 174 z m 586 1035 l 609 1018 b 718 1093 651 1072 687 1093 b 801 1055 746 1093 758 1084 b 910 1013 847 1022 874 1013 b 1042 1101 958 1013 993 1033 l 1018 1117 b 910 1042 979 1064 950 1042 b 820 1079 881 1042 859 1053 b 718 1123 767 1116 752 1123 b 586 1035 681 1123 637 1102 z "},"Ö":{"ha":1256,"x_min":0,"x_max":0,"o":"m 696 1112 l 681 1028 l 714 1028 l 728 1112 z m 199 381 b 642 -8 199 156 353 -8 b 1208 496 1045 -8 1208 219 b 773 904 1208 763 1033 904 b 199 381 424 904 199 675 z m 234 379 b 769 873 234 642 427 873 b 1173 498 1024 873 1173 731 b 647 24 1173 222 1009 24 b 234 379 381 24 234 174 z m 856 1028 l 889 1028 l 903 1112 l 871 1112 z "},"Ō":{"ha":1256,"x_min":0,"x_max":0,"o":"m 624 1058 l 619 1028 l 972 1028 l 976 1058 z m 199 381 b 642 -8 199 156 353 -8 b 1208 496 1045 -8 1208 219 b 773 904 1208 763 1033 904 b 199 381 424 904 199 675 z m 234 379 b 769 873 234 642 427 873 b 1173 498 1024 873 1173 731 b 647 24 1173 222 1009 24 b 234 379 381 24 234 174 z "},"Ŏ":{"ha":1256,"x_min":0,"x_max":0,"o":"m 773 904 b 199 381 424 904 199 675 b 642 -8 199 156 353 -8 b 1208 496 1045 -8 1208 219 b 773 904 1208 763 1033 904 z m 234 379 b 769 873 234 642 427 873 b 1173 498 1024 873 1173 731 b 647 24 1173 222 1009 24 b 234 379 381 24 234 174 z m 662 1156 b 810 1009 662 1067 700 1009 b 1019 1186 930 1009 986 1067 l 990 1192 b 811 1038 954 1077 899 1038 b 691 1163 734 1038 691 1067 b 692 1192 691 1172 692 1181 l 664 1192 b 662 1156 663 1179 662 1167 z "},"Ő":{"ha":1256,"x_min":0,"x_max":0,"o":"m 622 1031 l 641 1009 l 881 1213 l 857 1239 z m 199 381 b 642 -8 199 156 353 -8 b 1208 496 1045 -8 1208 219 b 773 904 1208 763 1033 904 b 199 381 424 904 199 675 z m 234 379 b 769 873 234 642 427 873 b 1173 498 1024 873 1173 731 b 647 24 1173 222 1009 24 b 234 379 381 24 234 174 z m 863 1033 l 882 1009 l 1132 1197 l 1110 1226 z "},"P":{"ha":1104,"x_min":0,"x_max":0,"o":"m 799 895 l 341 895 l 186 0 l 219 0 l 268 282 l 694 282 b 1117 624 980 282 1117 391 b 799 895 1117 785 1004 895 z m 274 313 l 369 865 l 794 865 b 1083 615 993 865 1083 758 b 702 313 1083 424 965 313 z "},"Q":{"ha":1256,"x_min":0,"x_max":0,"o":"m 773 904 b 199 381 424 904 199 675 b 642 -8 199 156 353 -8 b 835 13 713 -8 778 -1 l 901 -168 l 931 -156 l 865 21 b 1208 496 1106 90 1208 277 b 773 904 1208 763 1033 904 z m 234 379 b 769 873 234 642 427 873 b 1173 498 1024 873 1173 731 b 854 50 1173 281 1072 113 l 754 322 l 726 311 l 824 42 b 647 24 771 30 712 24 b 234 379 381 24 234 174 z "},"R":{"ha":1130,"x_min":0,"x_max":0,"o":"m 728 329 b 842 340 767 329 806 333 l 954 -7 l 987 4 l 874 348 b 1108 653 1008 386 1108 483 b 757 895 1108 779 1048 895 l 341 895 l 186 0 l 219 0 l 276 329 z m 281 360 l 369 865 l 768 865 b 1074 649 999 865 1074 780 b 727 360 1074 466 937 360 z "},"Ŕ":{"ha":1130,"x_min":0,"x_max":0,"o":"m 644 1038 l 658 1009 l 946 1138 l 931 1171 z m 186 0 l 219 0 l 276 329 l 728 329 b 842 340 767 329 806 333 l 954 -7 l 987 4 l 874 348 b 1108 653 1008 386 1108 483 b 757 895 1108 779 1048 895 l 341 895 z m 281 360 l 369 865 l 768 865 b 1074 649 999 865 1074 780 b 727 360 1074 466 937 360 z "},"Ŗ":{"ha":1130,"x_min":0,"x_max":0,"o":"m 497 -362 l 572 -245 l 597 -106 l 565 -106 l 543 -231 l 472 -344 z m 186 0 l 219 0 l 276 329 l 728 329 b 842 340 767 329 806 333 l 954 -7 l 987 4 l 874 348 b 1108 653 1008 386 1108 483 b 757 895 1108 779 1048 895 l 341 895 z m 281 360 l 369 865 l 768 865 b 1074 649 999 865 1074 780 b 727 360 1074 466 937 360 z "},"Ř":{"ha":1130,"x_min":0,"x_max":0,"o":"m 532 1191 l 678 1014 l 711 1014 l 913 1186 l 895 1210 l 695 1040 l 555 1211 z m 186 0 l 219 0 l 276 329 l 728 329 b 842 340 767 329 806 333 l 954 -7 l 987 4 l 874 348 b 1108 653 1008 386 1108 483 b 757 895 1108 779 1048 895 l 341 895 z m 281 360 l 369 865 l 768 865 b 1074 649 999 865 1074 780 b 727 360 1074 466 937 360 z "},"S":{"ha":1026,"x_min":0,"x_max":0,"o":"m 510 -8 b 950 286 799 -8 950 75 b 623 487 950 467 788 482 b 276 644 451 492 276 486 b 655 873 276 789 396 873 b 969 815 785 873 914 834 l 981 844 b 642 904 924 865 797 904 b 241 647 391 904 241 809 b 600 456 241 458 424 460 b 917 277 762 452 917 443 b 517 24 917 103 781 24 b 152 94 360 24 219 65 l 139 63 b 510 -8 238 18 392 -8 z "},"Ś":{"ha":1026,"x_min":0,"x_max":0,"o":"m 610 1038 l 623 1009 l 911 1138 l 896 1171 z m 139 63 b 510 -8 238 18 392 -8 b 950 286 799 -8 950 75 b 623 487 950 467 788 482 b 276 644 451 492 276 486 b 655 873 276 789 396 873 b 969 815 785 873 914 834 l 981 844 b 642 904 924 865 797 904 b 241 647 391 904 241 809 b 600 456 241 458 424 460 b 917 277 762 452 917 443 b 517 24 917 103 781 24 b 152 94 360 24 219 65 z "},"Ŝ":{"ha":1026,"x_min":0,"x_max":0,"o":"m 480 1032 l 501 1009 l 699 1182 l 841 1009 l 864 1029 l 717 1206 l 685 1206 z m 139 63 b 510 -8 238 18 392 -8 b 950 286 799 -8 950 75 b 623 487 950 467 788 482 b 276 644 451 492 276 486 b 655 873 276 789 396 873 b 969 815 785 873 914 834 l 981 844 b 642 904 924 865 797 904 b 241 647 391 904 241 809 b 600 456 241 458 424 460 b 917 277 762 452 917 443 b 517 24 917 103 781 24 b 152 94 360 24 219 65 z "},"Ş":{"ha":1026,"x_min":0,"x_max":0,"o":"m 353 -237 l 346 -264 b 440 -277 366 -271 401 -277 b 610 -135 542 -277 610 -228 b 550 -7 610 -80 594 -35 b 950 286 813 1 950 85 b 623 487 950 467 788 482 b 276 644 451 492 276 486 b 655 873 276 789 396 873 b 969 815 785 873 914 834 l 981 844 b 642 904 924 865 797 904 b 241 647 391 904 241 809 b 600 456 241 458 424 460 b 917 277 762 452 917 443 b 517 24 917 103 781 24 b 152 94 360 24 219 65 l 139 63 b 501 -8 235 19 384 -6 b 578 -134 571 -38 578 -85 b 444 -251 578 -224 505 -251 b 353 -237 410 -251 374 -244 z "},"Š":{"ha":1026,"x_min":0,"x_max":0,"o":"m 508 1191 l 654 1014 l 687 1014 l 889 1186 l 871 1210 l 671 1040 l 531 1211 z m 139 63 b 510 -8 238 18 392 -8 b 950 286 799 -8 950 75 b 623 487 950 467 788 482 b 276 644 451 492 276 486 b 655 873 276 789 396 873 b 969 815 785 873 914 834 l 981 844 b 642 904 924 865 797 904 b 241 647 391 904 241 809 b 600 456 241 458 424 460 b 917 277 762 452 917 443 b 517 24 917 103 781 24 b 152 94 360 24 219 65 z "},"Ș":{"ha":1026,"x_min":0,"x_max":0,"o":"m 455 -362 l 531 -245 l 555 -106 l 523 -106 l 501 -231 l 430 -344 z m 139 63 b 510 -8 238 18 392 -8 b 950 286 799 -8 950 75 b 623 487 950 467 788 482 b 276 644 451 492 276 486 b 655 873 276 789 396 873 b 969 815 785 873 914 834 l 981 844 b 642 904 924 865 797 904 b 241 647 391 904 241 809 b 600 456 241 458 424 460 b 917 277 762 452 917 443 b 517 24 917 103 781 24 b 152 94 360 24 219 65 z "},"T":{"ha":949,"x_min":0,"x_max":0,"o":"m 596 865 l 447 0 l 480 0 l 629 865 l 1067 865 l 1073 896 l 186 896 l 181 865 z "},"Ţ":{"ha":949,"x_min":0,"x_max":0,"o":"m 365 -362 l 441 -245 l 465 -106 l 433 -106 l 412 -231 l 340 -344 z m 181 865 l 596 865 l 447 0 l 480 0 l 629 865 l 1067 865 l 1073 896 l 186 896 z "},"Ť":{"ha":949,"x_min":0,"x_max":0,"o":"m 465 1191 l 611 1014 l 644 1014 l 846 1186 l 828 1210 l 628 1040 l 488 1211 z m 181 865 l 596 865 l 447 0 l 480 0 l 629 865 l 1067 865 l 1073 896 l 186 896 z "},"U":{"ha":1156,"x_min":0,"x_max":0,"o":"m 235 408 b 224 300 228 369 224 333 b 573 -8 224 54 402 -8 b 1063 409 795 -8 1006 81 l 1147 895 l 1113 895 l 1030 415 b 572 24 977 110 774 24 b 259 309 421 24 259 81 b 269 415 259 341 262 376 l 352 895 l 319 895 z "},"Ù":{"ha":1156,"x_min":0,"x_max":0,"o":"m 235 408 b 224 300 228 369 224 333 b 573 -8 224 54 402 -8 b 1063 409 795 -8 1006 81 l 1147 895 l 1113 895 l 1030 415 b 572 24 977 110 774 24 b 259 309 421 24 259 81 b 269 415 259 341 262 376 l 352 895 l 319 895 z m 585 1142 l 799 1008 l 817 1033 l 608 1174 z "},"Ú":{"ha":1156,"x_min":0,"x_max":0,"o":"m 690 1038 l 703 1009 l 991 1138 l 976 1171 z m 224 300 b 573 -8 224 54 402 -8 b 1063 409 795 -8 1006 81 l 1147 895 l 1113 895 l 1030 415 b 572 24 977 110 774 24 b 259 309 421 24 259 81 b 269 415 259 341 262 376 l 352 895 l 319 895 l 235 408 b 224 300 228 369 224 333 z "},"Û":{"ha":1156,"x_min":0,"x_max":0,"o":"m 560 1032 l 581 1009 l 780 1182 l 922 1009 l 944 1029 l 798 1206 l 765 1206 z m 224 300 b 573 -8 224 54 402 -8 b 1063 409 795 -8 1006 81 l 1147 895 l 1113 895 l 1030 415 b 572 24 977 110 774 24 b 259 309 421 24 259 81 b 269 415 259 341 262 376 l 352 895 l 319 895 l 235 408 b 224 300 228 369 224 333 z "},"Ü":{"ha":1156,"x_min":0,"x_max":0,"o":"m 656 1112 l 641 1028 l 674 1028 l 688 1112 z m 224 300 b 573 -8 224 54 402 -8 b 1063 409 795 -8 1006 81 l 1147 895 l 1113 895 l 1030 415 b 572 24 977 110 774 24 b 259 309 421 24 259 81 b 269 415 259 341 262 376 l 352 895 l 319 895 l 235 408 b 224 300 228 369 224 333 z m 816 1028 l 849 1028 l 863 1112 l 831 1112 z "},"Ũ":{"ha":1156,"x_min":0,"x_max":0,"o":"m 235 408 b 224 300 228 369 224 333 b 573 -8 224 54 402 -8 b 1063 409 795 -8 1006 81 l 1147 895 l 1113 895 l 1030 415 b 572 24 977 110 774 24 b 259 309 421 24 259 81 b 269 415 259 341 262 376 l 352 895 l 319 895 z m 527 1035 l 550 1018 b 659 1093 592 1072 628 1093 b 742 1055 687 1093 699 1084 b 851 1013 788 1022 815 1013 b 983 1101 899 1013 934 1033 l 959 1117 b 851 1042 920 1064 891 1042 b 761 1079 822 1042 800 1053 b 659 1123 708 1116 693 1123 b 527 1035 622 1123 578 1102 z "},"Ū":{"ha":1156,"x_min":0,"x_max":0,"o":"m 235 408 b 224 300 228 369 224 333 b 573 -8 224 54 402 -8 b 1063 409 795 -8 1006 81 l 1147 895 l 1113 895 l 1030 415 b 572 24 977 110 774 24 b 259 309 421 24 259 81 b 269 415 259 341 262 376 l 352 895 l 319 895 z m 572 1028 l 924 1028 l 929 1058 l 576 1058 z "},"Ŭ":{"ha":1156,"x_min":0,"x_max":0,"o":"m 235 408 b 224 300 228 369 224 333 b 573 -8 224 54 402 -8 b 1063 409 795 -8 1006 81 l 1147 895 l 1113 895 l 1030 415 b 572 24 977 110 774 24 b 259 309 421 24 259 81 b 269 415 259 341 262 376 l 352 895 l 319 895 z m 593 1156 b 742 1009 593 1067 631 1009 b 950 1186 861 1009 917 1067 l 921 1192 b 742 1038 885 1077 830 1038 b 622 1163 665 1038 622 1067 b 624 1192 622 1172 623 1181 l 595 1192 b 593 1156 594 1179 593 1167 z "},"Ů":{"ha":1156,"x_min":0,"x_max":0,"o":"m 748 997 b 891 1115 831 997 891 1047 b 778 1214 891 1177 849 1214 b 637 1094 694 1214 637 1163 b 748 997 637 1033 678 997 z m 224 300 b 573 -8 224 54 402 -8 b 1063 409 795 -8 1006 81 l 1147 895 l 1113 895 l 1030 415 b 572 24 977 110 774 24 b 259 309 421 24 259 81 b 269 415 259 341 262 376 l 352 895 l 319 895 l 235 408 b 224 300 228 369 224 333 z m 669 1097 b 774 1186 669 1147 715 1186 b 859 1111 830 1186 859 1160 b 751 1025 859 1063 810 1025 b 669 1097 696 1025 669 1049 z "},"Ű":{"ha":1156,"x_min":0,"x_max":0,"o":"m 235 408 b 224 300 228 369 224 333 b 573 -8 224 54 402 -8 b 1063 409 795 -8 1006 81 l 1147 895 l 1113 895 l 1030 415 b 572 24 977 110 774 24 b 259 309 421 24 259 81 b 269 415 259 341 262 376 l 352 895 l 319 895 z m 591 1031 l 610 1009 l 851 1213 l 826 1239 z m 832 1033 l 851 1009 l 1101 1197 l 1080 1226 z "},"Ų":{"ha":1156,"x_min":0,"x_max":0,"o":"m 235 408 b 224 300 228 369 224 333 b 573 -8 224 54 402 -8 l 585 -8 b 464 -166 499 -52 464 -106 b 585 -278 464 -242 512 -278 b 680 -258 623 -278 652 -271 l 671 -235 b 590 -253 647 -246 621 -253 b 496 -167 529 -253 496 -223 b 645 -4 496 -104 528 -58 b 1063 409 839 15 1012 116 l 1147 895 l 1113 895 l 1030 415 b 572 24 977 110 774 24 b 259 309 421 24 259 81 b 269 415 259 341 262 376 l 352 895 l 319 895 z "},"V":{"ha":994,"x_min":0,"x_max":0,"o":"m 198 890 l 492 0 l 537 0 l 1103 883 l 1074 904 l 519 37 l 231 903 z "},"W":{"ha":1467,"x_min":0,"x_max":0,"o":"m 235 892 l 411 0 l 458 0 l 892 860 l 1036 0 l 1084 0 l 1542 887 l 1512 901 l 1065 38 l 920 895 l 874 895 l 440 38 l 269 900 z "},"Ŵ":{"ha":1467,"x_min":0,"x_max":0,"o":"m 702 1032 l 723 1009 l 922 1182 l 1063 1009 l 1086 1029 l 940 1206 l 907 1206 z m 235 892 l 411 0 l 458 0 l 892 860 l 1036 0 l 1084 0 l 1542 887 l 1512 901 l 1065 38 l 920 895 l 874 895 l 440 38 l 269 900 z "},"Ẁ":{"ha":1467,"x_min":0,"x_max":0,"o":"m 235 892 l 411 0 l 458 0 l 892 860 l 1036 0 l 1084 0 l 1542 887 l 1512 901 l 1065 38 l 920 895 l 874 895 l 440 38 l 269 900 z m 694 1142 l 908 1008 l 925 1033 l 717 1174 z "},"Ẃ":{"ha":1467,"x_min":0,"x_max":0,"o":"m 878 1038 l 891 1009 l 1179 1138 l 1164 1171 z m 235 892 l 411 0 l 458 0 l 892 860 l 1036 0 l 1084 0 l 1542 887 l 1512 901 l 1065 38 l 920 895 l 874 895 l 440 38 l 269 900 z "},"Ẅ":{"ha":1467,"x_min":0,"x_max":0,"o":"m 815 1112 l 801 1028 l 833 1028 l 848 1112 z m 235 892 l 411 0 l 458 0 l 892 860 l 1036 0 l 1084 0 l 1542 887 l 1512 901 l 1065 38 l 920 895 l 874 895 l 440 38 l 269 900 z m 976 1028 l 1008 1028 l 1023 1112 l 990 1112 z "},"X":{"ha":1047,"x_min":0,"x_max":0,"o":"m 72 19 l 94 -8 l 605 440 l 973 -6 l 998 16 l 631 463 l 1104 878 l 1084 901 l 610 488 l 268 904 l 242 881 l 584 466 z "},"Y":{"ha":1042,"x_min":0,"x_max":0,"o":"m 558 242 l 517 0 l 550 0 l 592 237 l 1158 882 l 1135 903 l 581 272 l 215 903 l 188 886 z "},"Ý":{"ha":1042,"x_min":0,"x_max":0,"o":"m 558 242 l 517 0 l 550 0 l 592 237 l 1158 882 l 1135 903 l 581 272 l 215 903 l 188 886 z m 632 1038 l 645 1009 l 933 1138 l 918 1171 z "},"Ŷ":{"ha":1042,"x_min":0,"x_max":0,"o":"m 558 242 l 517 0 l 550 0 l 592 237 l 1158 882 l 1135 903 l 581 272 l 215 903 l 188 886 z m 486 1032 l 507 1009 l 706 1182 l 847 1009 l 870 1029 l 724 1206 l 691 1206 z "},"Ÿ":{"ha":1042,"x_min":0,"x_max":0,"o":"m 558 242 l 517 0 l 550 0 l 592 237 l 1158 882 l 1135 903 l 581 272 l 215 903 l 188 886 z m 560 1028 l 593 1028 l 608 1112 l 575 1112 z m 735 1028 l 768 1028 l 783 1112 l 750 1112 z "},"Z":{"ha":1014,"x_min":0,"x_max":0,"o":"m 87 31 l 81 0 l 948 0 l 953 31 l 133 31 l 1094 865 l 1099 895 l 283 895 l 277 865 l 1048 865 z "},"Ź":{"ha":1014,"x_min":0,"x_max":0,"o":"m 609 1038 l 622 1009 l 910 1138 l 895 1171 z m 81 0 l 948 0 l 953 31 l 133 31 l 1094 865 l 1099 895 l 283 895 l 277 865 l 1048 865 l 87 31 z "},"Ż":{"ha":1014,"x_min":0,"x_max":0,"o":"m 87 31 l 81 0 l 948 0 l 953 31 l 133 31 l 1094 865 l 1099 895 l 283 895 l 277 865 l 1048 865 z m 682 1028 l 715 1028 l 729 1112 l 697 1112 z "},"Ž":{"ha":1014,"x_min":0,"x_max":0,"o":"m 528 1191 l 674 1014 l 707 1014 l 909 1186 l 891 1210 l 691 1040 l 551 1211 z m 81 0 l 948 0 l 953 31 l 133 31 l 1094 865 l 1099 895 l 283 895 l 277 865 l 1048 865 l 87 31 z "},"Æ":{"ha":1477,"x_min":0,"x_max":0,"o":"m 3 17 l 30 -5 l 253 235 l 726 235 l 685 0 l 1385 0 l 1390 31 l 723 31 l 792 435 l 1336 435 l 1342 466 l 798 466 l 867 865 l 1520 865 l 1526 895 l 823 895 z m 282 266 l 833 860 l 731 266 z "},"Ǽ":{"ha":1477,"x_min":0,"x_max":0,"o":"m 858 1038 l 872 1009 l 1160 1138 l 1144 1171 z m 3 17 l 30 -5 l 253 235 l 726 235 l 685 0 l 1385 0 l 1390 31 l 723 31 l 792 435 l 1336 435 l 1342 466 l 798 466 l 867 865 l 1520 865 l 1526 895 l 823 895 z m 282 266 l 833 860 l 731 266 z "},"Ð":{"ha":1235,"x_min":0,"x_max":0,"o":"m 208 410 l 343 410 l 272 0 l 619 0 b 1190 541 1047 0 1190 219 b 780 895 1190 806 1033 895 l 427 895 l 349 441 l 214 441 z m 311 31 l 376 410 l 674 410 l 679 441 l 381 441 l 453 865 l 776 865 b 1155 534 1035 865 1155 771 b 626 31 1155 210 994 31 z "},"Ø":{"ha":1256,"x_min":0,"x_max":0,"o":"m 192 15 l 213 -8 l 326 90 b 642 -8 401 28 506 -8 b 1208 496 1045 -8 1208 219 b 1116 772 1208 613 1174 705 l 1242 881 l 1221 904 l 1094 794 b 773 904 1017 867 907 904 b 199 381 424 904 199 675 b 303 111 199 273 235 179 z m 234 379 b 769 873 234 642 427 873 b 1067 772 897 873 999 837 l 330 134 b 234 379 267 197 234 282 z m 353 113 l 1090 749 b 1173 498 1144 686 1173 601 b 647 24 1173 222 1009 24 b 353 113 522 24 423 57 z "},"Ǿ":{"ha":1256,"x_min":0,"x_max":0,"o":"m 213 -8 l 326 90 b 642 -8 401 28 506 -8 b 1208 496 1045 -8 1208 219 b 1116 772 1208 613 1174 705 l 1242 881 l 1221 904 l 1094 794 b 773 904 1017 867 907 904 b 199 381 424 904 199 675 b 303 111 199 273 235 179 l 192 15 z m 234 379 b 769 873 234 642 427 873 b 1067 772 897 873 999 837 l 330 134 b 234 379 267 197 234 282 z m 353 113 l 1090 749 b 1173 498 1144 686 1173 601 b 647 24 1173 222 1009 24 b 353 113 522 24 423 57 z m 760 1038 l 774 1009 l 1062 1138 l 1047 1171 z "},"Þ":{"ha":1146,"x_min":0,"x_max":0,"o":"m 338 895 l 183 0 l 217 0 l 242 143 l 667 143 b 1090 485 926 143 1090 232 b 772 756 1090 648 972 756 l 347 756 l 372 895 z m 247 174 l 342 726 l 767 726 b 1056 476 972 726 1056 615 b 674 174 1056 331 986 174 z "},"Đ":{"ha":1235,"x_min":0,"x_max":0,"o":"m 208 410 l 343 410 l 272 0 l 619 0 b 1190 541 1047 0 1190 219 b 780 895 1190 806 1033 895 l 427 895 l 349 441 l 214 441 z m 311 31 l 376 410 l 674 410 l 679 441 l 381 441 l 453 865 l 776 865 b 1155 534 1035 865 1155 771 b 626 31 1155 210 994 31 z "},"Ħ":{"ha":1450,"x_min":0,"x_max":0,"o":"m 308 708 l 303 678 l 406 678 l 288 0 l 322 0 l 392 418 l 1200 418 l 1129 0 l 1163 0 l 1280 678 l 1381 678 l 1385 708 l 1285 708 l 1317 895 l 1284 895 l 1252 708 l 444 708 l 476 895 l 443 895 l 410 708 z m 399 449 l 439 678 l 1247 678 l 1207 449 z "},"Ĳ":{"ha":1262,"x_min":0,"x_max":0,"o":"m 341 895 l 186 0 l 219 0 l 374 895 z m 531 58 b 797 -8 581 28 668 -8 b 1144 269 928 -8 1105 44 l 1252 895 l 1219 895 l 1115 286 b 792 24 1083 104 952 24 b 549 90 683 24 591 64 z "},"Ŀ":{"ha":915,"x_min":0,"x_max":0,"o":"m 341 895 l 186 0 l 888 0 l 893 29 l 224 29 l 374 895 z m 631 406 l 663 406 l 685 533 l 653 533 z "},"Ł":{"ha":1062,"x_min":0,"x_max":0,"o":"m 251 376 l 261 348 l 403 407 l 333 0 l 1035 0 l 1040 29 l 372 29 l 440 422 l 701 530 l 690 558 l 446 456 l 522 895 l 488 895 l 410 442 z "},"Ŋ":{"ha":1179,"x_min":0,"x_max":0,"o":"m 736 -259 l 749 -287 b 990 -17 876 -219 969 -140 l 1148 895 l 1115 895 l 968 49 l 384 895 l 341 895 l 186 0 l 219 0 l 368 860 l 961 1 b 736 -259 942 -108 863 -188 z "},"Œ":{"ha":1613,"x_min":0,"x_max":0,"o":"m 776 895 b 203 379 409 895 203 665 b 645 0 203 165 356 0 l 1487 0 l 1492 31 l 825 31 l 894 435 l 1438 435 l 1443 466 l 900 466 l 969 865 l 1622 865 l 1628 895 z m 238 378 b 768 864 238 638 424 864 l 935 864 l 792 31 l 650 31 b 238 378 384 31 238 181 z "},"Ŧ":{"ha":949,"x_min":0,"x_max":0,"o":"m 318 453 l 313 423 l 519 423 l 447 0 l 480 0 l 553 423 l 758 423 l 764 453 l 558 453 l 629 865 l 1067 865 l 1073 896 l 186 896 l 181 865 l 596 865 l 525 453 z "},"Ω":{"ha":1214,"x_min":0,"x_max":0,"o":"m 378 31 l 120 31 l 115 0 l 422 0 l 427 27 b 240 376 308 115 240 222 b 748 873 240 743 537 873 b 1124 506 969 873 1124 752 b 786 27 1124 301 1036 183 l 781 0 l 1100 0 l 1106 31 l 837 31 b 1158 506 1042 147 1158 284 b 749 904 1158 762 995 904 b 205 373 494 904 205 734 b 378 31 205 213 272 117 z "},"a":{"ha":887,"x_min":0,"x_max":0,"o":"m 667 400 b 149 149 305 400 149 301 b 344 -8 149 37 242 -8 b 738 124 524 -8 653 70 l 718 0 l 746 0 l 822 438 b 828 507 826 463 828 485 b 603 686 828 618 767 686 b 311 628 467 686 361 648 l 322 599 b 596 656 371 622 481 656 b 799 501 719 656 799 619 b 783 392 799 469 790 420 b 667 400 758 395 706 400 z m 182 147 b 676 370 182 292 340 370 b 780 364 715 370 752 367 l 744 163 b 347 22 655 99 510 22 b 182 147 253 22 182 66 z "},"à":{"ha":887,"x_min":0,"x_max":0,"o":"m 667 400 b 149 149 305 400 149 301 b 344 -8 149 37 242 -8 b 738 124 524 -8 653 70 l 718 0 l 746 0 l 822 438 b 828 507 826 463 828 485 b 603 686 828 618 767 686 b 311 628 467 686 361 648 l 322 599 b 596 656 371 622 481 656 b 799 501 719 656 799 619 b 783 392 799 469 790 420 b 667 400 758 395 706 400 z m 182 147 b 676 370 182 292 340 370 b 780 364 715 370 752 367 l 744 163 b 347 22 655 99 510 22 b 182 147 253 22 182 66 z m 497 958 l 666 772 l 688 792 l 522 981 z "},"á":{"ha":887,"x_min":0,"x_max":0,"o":"m 667 400 b 149 149 305 400 149 301 b 344 -8 149 37 242 -8 b 738 124 524 -8 653 70 l 718 0 l 746 0 l 822 438 b 828 507 826 463 828 485 b 603 686 828 618 767 686 b 311 628 467 686 361 648 l 322 599 b 596 656 371 622 481 656 b 799 501 719 656 799 619 b 783 392 799 469 790 420 b 667 400 758 395 706 400 z m 182 147 b 676 370 182 292 340 370 b 780 364 715 370 752 367 l 744 163 b 347 22 655 99 510 22 b 182 147 253 22 182 66 z m 560 796 l 579 773 l 791 950 l 769 976 z "},"â":{"ha":887,"x_min":0,"x_max":0,"o":"m 667 400 b 149 149 305 400 149 301 b 344 -8 149 37 242 -8 b 738 124 524 -8 653 70 l 718 0 l 746 0 l 822 438 b 828 507 826 463 828 485 b 603 686 828 618 767 686 b 311 628 467 686 361 648 l 322 599 b 596 656 371 622 481 656 b 799 501 719 656 799 619 b 783 392 799 469 790 420 b 667 400 758 395 706 400 z m 182 147 b 676 370 182 292 340 370 b 780 364 715 370 752 367 l 744 163 b 347 22 655 99 510 22 b 182 147 253 22 182 66 z m 433 794 l 456 774 l 633 958 l 743 773 l 771 788 l 650 985 l 619 985 z "},"ã":{"ha":887,"x_min":0,"x_max":0,"o":"m 667 400 b 149 149 305 400 149 301 b 344 -8 149 37 242 -8 b 738 124 524 -8 653 70 l 718 0 l 746 0 l 822 438 b 828 507 826 463 828 485 b 603 686 828 618 767 686 b 311 628 467 686 361 648 l 322 599 b 596 656 371 622 481 656 b 799 501 719 656 799 619 b 783 392 799 469 790 420 b 667 400 758 395 706 400 z m 182 147 b 676 370 182 292 340 370 b 780 364 715 370 752 367 l 744 163 b 347 22 655 99 510 22 b 182 147 253 22 182 66 z m 399 807 l 422 788 b 524 863 461 842 494 863 b 603 826 551 863 563 855 b 708 783 648 793 673 783 b 833 870 753 783 787 803 l 809 887 b 708 811 773 833 746 811 b 622 849 679 811 660 822 b 524 892 571 885 558 892 b 399 807 488 892 446 873 z "},"ä":{"ha":887,"x_min":0,"x_max":0,"o":"m 667 400 b 149 149 305 400 149 301 b 344 -8 149 37 242 -8 b 738 124 524 -8 653 70 l 718 0 l 746 0 l 822 438 b 828 507 826 463 828 485 b 603 686 828 618 767 686 b 311 628 467 686 361 648 l 322 599 b 596 656 371 622 481 656 b 799 501 719 656 799 619 b 783 392 799 469 790 420 b 667 400 758 395 706 400 z m 182 147 b 676 370 182 292 340 370 b 780 364 715 370 752 367 l 744 163 b 347 22 655 99 510 22 b 182 147 253 22 182 66 z m 507 790 l 540 790 l 553 874 l 521 874 z m 660 790 l 692 790 l 706 874 l 674 874 z "},"å":{"ha":887,"x_min":0,"x_max":0,"o":"m 667 400 b 149 149 305 400 149 301 b 344 -8 149 37 242 -8 b 738 124 524 -8 653 70 l 718 0 l 746 0 l 822 438 b 828 507 826 463 828 485 b 603 686 828 618 767 686 b 311 628 467 686 361 648 l 322 599 b 596 656 371 622 481 656 b 799 501 719 656 799 619 b 783 392 799 469 790 420 b 667 400 758 395 706 400 z m 182 147 b 676 370 182 292 340 370 b 780 364 715 370 752 367 l 744 163 b 347 22 655 99 510 22 b 182 147 253 22 182 66 z m 492 856 b 603 759 492 794 533 759 b 746 877 685 759 746 808 b 633 976 746 939 704 976 b 492 856 551 976 492 925 z m 522 858 b 629 951 522 910 569 951 b 716 873 687 951 716 924 b 606 783 716 823 667 783 b 522 858 551 783 522 809 z "},"ā":{"ha":887,"x_min":0,"x_max":0,"o":"m 667 400 b 149 149 305 400 149 301 b 344 -8 149 37 242 -8 b 738 124 524 -8 653 70 l 718 0 l 746 0 l 822 438 b 828 507 826 463 828 485 b 603 686 828 618 767 686 b 311 628 467 686 361 648 l 322 599 b 596 656 371 622 481 656 b 799 501 719 656 799 619 b 783 392 799 469 790 420 b 667 400 758 395 706 400 z m 182 147 b 676 370 182 292 340 370 b 780 364 715 370 752 367 l 744 163 b 347 22 655 99 510 22 b 182 147 253 22 182 66 z m 424 790 l 797 790 l 801 817 l 428 817 z "},"ă":{"ha":887,"x_min":0,"x_max":0,"o":"m 667 400 b 149 149 305 400 149 301 b 344 -8 149 37 242 -8 b 738 124 524 -8 653 70 l 718 0 l 746 0 l 822 438 b 828 507 826 463 828 485 b 603 686 828 618 767 686 b 311 628 467 686 361 648 l 322 599 b 596 656 371 622 481 656 b 799 501 719 656 799 619 b 783 392 799 469 790 420 b 667 400 758 395 706 400 z m 182 147 b 676 370 182 292 340 370 b 780 364 715 370 752 367 l 744 163 b 347 22 655 99 510 22 b 182 147 253 22 182 66 z m 468 907 b 599 773 468 826 503 773 b 784 935 703 773 756 827 l 756 941 b 604 801 726 838 678 801 b 497 915 536 801 497 827 b 499 942 497 923 498 932 l 470 942 b 468 907 469 930 468 918 z "},"ą":{"ha":893,"x_min":0,"x_max":0,"o":"m 746 0 l 822 438 b 828 507 826 463 828 485 b 603 686 828 618 767 686 b 311 628 467 686 361 648 l 322 599 b 596 656 371 622 481 656 b 799 501 719 656 799 619 b 783 392 799 469 790 420 b 667 400 758 395 706 400 b 149 149 305 400 149 301 b 344 -8 149 37 242 -8 b 738 124 524 -8 653 70 l 720 12 b 563 -166 606 -35 563 -98 b 678 -278 563 -242 608 -278 b 772 -258 715 -278 744 -271 l 763 -235 b 683 -253 740 -246 713 -253 b 594 -167 626 -253 594 -223 b 746 0 594 -104 627 -53 z m 182 147 b 676 370 182 292 340 370 b 780 364 715 370 752 367 l 744 163 b 347 22 655 99 510 22 b 182 147 253 22 182 66 z "},"ǻ":{"ha":887,"x_min":0,"x_max":0,"o":"m 543 1002 l 554 977 l 794 1081 l 780 1109 z m 149 149 b 344 -8 149 37 242 -8 b 738 124 524 -8 653 70 l 718 0 l 746 0 l 822 438 b 828 507 826 463 828 485 b 603 686 828 618 767 686 b 311 628 467 686 361 648 l 322 599 b 596 656 371 622 481 656 b 799 501 719 656 799 619 b 783 392 799 469 790 420 b 667 400 758 395 706 400 b 149 149 305 400 149 301 z m 182 147 b 676 370 182 292 340 370 b 780 364 715 370 752 367 l 744 163 b 347 22 655 99 510 22 b 182 147 253 22 182 66 z m 485 826 b 596 730 485 765 526 730 b 739 848 678 730 739 779 b 626 947 739 910 697 947 b 485 826 544 947 485 896 z m 515 829 b 622 922 515 881 563 922 b 709 844 680 922 709 895 b 599 754 709 794 660 754 b 515 829 544 754 515 780 z "},"b":{"ha":937,"x_min":0,"x_max":0,"o":"m 501 -8 b 888 393 714 -8 888 133 b 599 685 888 574 784 685 b 284 574 442 685 327 606 l 354 982 l 324 982 l 155 0 l 181 0 l 199 85 b 501 -8 253 51 370 -8 z m 205 117 l 277 534 b 593 655 331 578 449 655 b 856 382 772 655 856 550 b 503 22 856 145 678 22 b 205 117 385 22 282 70 z "},"c":{"ha":850,"x_min":0,"x_max":0,"o":"m 492 -8 b 765 51 603 -8 678 15 l 753 79 b 497 22 691 54 604 22 b 197 288 310 22 197 106 b 584 655 197 511 363 655 b 806 613 670 655 736 638 l 818 643 b 585 685 762 663 695 685 b 165 287 358 685 165 541 b 492 -8 165 91 292 -8 z "},"ç":{"ha":850,"x_min":0,"x_max":0,"o":"m 492 -8 b 765 51 603 -8 678 15 l 753 79 b 497 22 691 54 604 22 b 197 288 310 22 197 106 b 584 655 197 511 363 655 b 806 613 670 655 736 638 l 818 643 b 585 685 762 663 695 685 b 165 287 358 685 165 541 b 431 -5 165 112 267 13 b 515 -134 507 -36 515 -83 b 381 -251 515 -224 442 -251 b 290 -237 347 -251 311 -244 l 283 -264 b 377 -277 303 -271 338 -277 b 547 -135 478 -277 547 -228 b 489 -8 547 -81 531 -37 z "},"ć":{"ha":850,"x_min":0,"x_max":0,"o":"m 492 -8 b 765 51 603 -8 678 15 l 753 79 b 497 22 691 54 604 22 b 197 288 310 22 197 106 b 584 655 197 511 363 655 b 806 613 670 655 736 638 l 818 643 b 585 685 762 663 695 685 b 165 287 358 685 165 541 b 492 -8 165 91 292 -8 z m 536 796 l 556 773 l 767 950 l 745 976 z "},"ĉ":{"ha":850,"x_min":0,"x_max":0,"o":"m 492 -8 b 765 51 603 -8 678 15 l 753 79 b 497 22 691 54 604 22 b 197 288 310 22 197 106 b 584 655 197 511 363 655 b 806 613 670 655 736 638 l 818 643 b 585 685 762 663 695 685 b 165 287 358 685 165 541 b 492 -8 165 91 292 -8 z m 422 794 l 444 774 l 622 958 l 732 773 l 760 788 l 639 985 l 608 985 z "},"ċ":{"ha":850,"x_min":0,"x_max":0,"o":"m 590 874 l 576 790 l 608 790 l 622 874 z m 165 287 b 492 -8 165 91 292 -8 b 765 51 603 -8 678 15 l 753 79 b 497 22 691 54 604 22 b 197 288 310 22 197 106 b 584 655 197 511 363 655 b 806 613 670 655 736 638 l 818 643 b 585 685 762 663 695 685 b 165 287 358 685 165 541 z "},"č":{"ha":850,"x_min":0,"x_max":0,"o":"m 492 -8 b 765 51 603 -8 678 15 l 753 79 b 497 22 691 54 604 22 b 197 288 310 22 197 106 b 584 655 197 511 363 655 b 806 613 670 655 736 638 l 818 643 b 585 685 762 663 695 685 b 165 287 358 685 165 541 b 492 -8 165 91 292 -8 z m 461 968 l 580 773 l 611 773 l 795 962 l 774 984 l 597 800 l 487 985 z "},"d":{"ha":940,"x_min":0,"x_max":0,"o":"m 556 685 b 165 274 323 685 165 531 b 447 -8 165 85 265 -8 b 774 106 613 -8 747 89 l 759 0 l 785 0 l 954 982 l 924 982 l 855 581 b 556 685 791 627 692 685 z m 197 272 b 558 655 197 509 331 655 b 849 546 664 655 763 613 l 780 146 b 451 22 723 101 587 22 b 197 272 289 22 197 103 z "},"ď":{"ha":974,"x_min":0,"x_max":0,"o":"m 1107 983 l 1044 765 l 1069 757 l 1138 974 z m 165 274 b 447 -8 165 85 265 -8 b 774 106 613 -8 747 89 l 759 0 l 785 0 l 954 982 l 924 982 l 855 581 b 556 685 791 627 692 685 b 165 274 323 685 165 531 z m 197 272 b 558 655 197 509 331 655 b 849 546 664 655 763 613 l 780 146 b 451 22 723 101 587 22 b 197 272 289 22 197 103 z "},"e":{"ha":921,"x_min":0,"x_max":0,"o":"m 494 -8 b 811 90 614 -8 703 26 l 794 118 b 498 22 681 49 597 22 b 199 319 292 22 199 117 l 866 319 b 880 411 876 345 880 383 b 585 686 880 607 745 686 b 165 293 363 686 165 542 b 494 -8 165 90 288 -8 z m 201 347 b 583 656 233 551 398 656 b 848 420 746 656 848 570 b 840 347 848 393 845 363 z "},"è":{"ha":921,"x_min":0,"x_max":0,"o":"m 453 958 l 622 772 l 644 792 l 478 981 z m 165 293 b 494 -8 165 90 288 -8 b 811 90 614 -8 703 26 l 794 118 b 498 22 681 49 597 22 b 199 319 292 22 199 117 l 866 319 b 880 411 876 345 880 383 b 585 686 880 607 745 686 b 165 293 363 686 165 542 z m 201 347 b 583 656 233 551 398 656 b 848 420 746 656 848 570 b 840 347 848 393 845 363 z "},"é":{"ha":921,"x_min":0,"x_max":0,"o":"m 494 -8 b 811 90 614 -8 703 26 l 794 118 b 498 22 681 49 597 22 b 199 319 292 22 199 117 l 866 319 b 880 411 876 345 880 383 b 585 686 880 607 745 686 b 165 293 363 686 165 542 b 494 -8 165 90 288 -8 z m 201 347 b 583 656 233 551 398 656 b 848 420 746 656 848 570 b 840 347 848 393 845 363 z m 546 796 l 565 773 l 777 950 l 755 976 z "},"ê":{"ha":921,"x_min":0,"x_max":0,"o":"m 426 794 l 448 774 l 625 958 l 735 773 l 763 788 l 642 985 l 612 985 z m 165 293 b 494 -8 165 90 288 -8 b 811 90 614 -8 703 26 l 794 118 b 498 22 681 49 597 22 b 199 319 292 22 199 117 l 866 319 b 880 411 876 345 880 383 b 585 686 880 607 745 686 b 165 293 363 686 165 542 z m 201 347 b 583 656 233 551 398 656 b 848 420 746 656 848 570 b 840 347 848 393 845 363 z "},"ë":{"ha":921,"x_min":0,"x_max":0,"o":"m 516 874 l 502 790 l 535 790 l 549 874 z m 165 293 b 494 -8 165 90 288 -8 b 811 90 614 -8 703 26 l 794 118 b 498 22 681 49 597 22 b 199 319 292 22 199 117 l 866 319 b 880 411 876 345 880 383 b 585 686 880 607 745 686 b 165 293 363 686 165 542 z m 201 347 b 583 656 233 551 398 656 b 848 420 746 656 848 570 b 840 347 848 393 845 363 z m 655 790 l 688 790 l 701 874 l 669 874 z "},"ē":{"ha":921,"x_min":0,"x_max":0,"o":"m 494 -8 b 811 90 614 -8 703 26 l 794 118 b 498 22 681 49 597 22 b 199 319 292 22 199 117 l 866 319 b 880 411 876 345 880 383 b 585 686 880 607 745 686 b 165 293 363 686 165 542 b 494 -8 165 90 288 -8 z m 201 347 b 583 656 233 551 398 656 b 848 420 746 656 848 570 b 840 347 848 393 845 363 z m 410 790 l 783 790 l 787 817 l 415 817 z "},"ĕ":{"ha":921,"x_min":0,"x_max":0,"o":"m 494 -8 b 811 90 614 -8 703 26 l 794 118 b 498 22 681 49 597 22 b 199 319 292 22 199 117 l 866 319 b 880 411 876 345 880 383 b 585 686 880 607 745 686 b 165 293 363 686 165 542 b 494 -8 165 90 288 -8 z m 201 347 b 583 656 233 551 398 656 b 848 420 746 656 848 570 b 840 347 848 393 845 363 z m 462 907 b 593 773 462 826 497 773 b 778 935 697 773 750 827 l 750 941 b 598 801 719 838 672 801 b 491 915 530 801 491 827 b 492 942 491 923 492 932 l 464 942 b 462 907 463 930 462 918 z "},"ė":{"ha":921,"x_min":0,"x_max":0,"o":"m 601 874 l 588 790 l 620 790 l 634 874 z m 165 293 b 494 -8 165 90 288 -8 b 811 90 614 -8 703 26 l 794 118 b 498 22 681 49 597 22 b 199 319 292 22 199 117 l 866 319 b 880 411 876 345 880 383 b 585 686 880 607 745 686 b 165 293 363 686 165 542 z m 201 347 b 583 656 233 551 398 656 b 848 420 746 656 848 570 b 840 347 848 393 845 363 z "},"ę":{"ha":998,"x_min":0,"x_max":0,"o":"m 494 -8 b 652 15 552 -8 603 -1 b 572 -160 595 -38 572 -96 b 694 -278 572 -239 620 -278 b 788 -258 731 -278 760 -271 l 779 -235 b 699 -253 756 -246 729 -253 b 604 -160 638 -253 604 -219 b 744 53 604 -81 634 -18 b 811 90 766 63 788 76 l 794 118 b 498 22 681 49 597 22 b 199 319 292 22 199 117 l 866 319 b 880 411 876 345 880 383 b 585 686 880 607 745 686 b 165 293 363 686 165 542 b 494 -8 165 90 288 -8 z m 201 347 b 583 656 233 551 398 656 b 848 420 746 656 848 570 b 840 347 848 393 845 363 z "},"ě":{"ha":921,"x_min":0,"x_max":0,"o":"m 494 -8 b 811 90 614 -8 703 26 l 794 118 b 498 22 681 49 597 22 b 199 319 292 22 199 117 l 866 319 b 880 411 876 345 880 383 b 585 686 880 607 745 686 b 165 293 363 686 165 542 b 494 -8 165 90 288 -8 z m 201 347 b 583 656 233 551 398 656 b 848 420 746 656 848 570 b 840 347 848 393 845 363 z m 462 968 l 581 773 l 612 773 l 796 962 l 775 984 l 598 800 l 488 985 z "},"f":{"ha":619,"x_min":0,"x_max":0,"o":"m 316 646 l 204 0 l 234 0 l 346 646 l 715 646 l 719 674 l 351 674 l 374 804 b 641 956 396 933 522 956 b 801 942 698 956 757 949 l 806 969 b 644 985 768 976 697 985 b 344 810 527 985 371 964 l 322 674 l 188 674 l 183 646 z "},"g":{"ha":948,"x_min":0,"x_max":0,"o":"m 138 -197 l 124 -224 b 396 -290 174 -249 276 -290 b 793 1 584 -290 756 -213 l 910 674 l 884 674 l 863 580 b 564 687 799 627 701 687 b 173 275 331 687 173 533 b 456 -7 173 85 274 -7 b 782 107 622 -7 755 90 l 767 25 b 397 -260 718 -249 474 -260 b 138 -197 289 -260 188 -222 z m 206 272 b 567 657 206 493 328 657 b 857 547 672 657 770 616 l 788 147 b 460 23 731 103 595 23 b 206 272 314 23 206 93 z "},"ĝ":{"ha":948,"x_min":0,"x_max":0,"o":"m 425 794 l 447 774 l 624 958 l 735 773 l 763 788 l 642 985 l 611 985 z m 124 -224 b 396 -290 174 -249 276 -290 b 793 1 584 -290 756 -213 l 910 674 l 884 674 l 863 580 b 564 687 799 627 701 687 b 173 275 331 687 173 533 b 456 -7 173 85 274 -7 b 782 107 622 -7 755 90 l 767 25 b 397 -260 718 -249 474 -260 b 138 -197 289 -260 188 -222 z m 206 272 b 567 657 206 493 328 657 b 857 547 672 657 770 616 l 788 147 b 460 23 731 103 595 23 b 206 272 314 23 206 93 z "},"ğ":{"ha":948,"x_min":0,"x_max":0,"o":"m 138 -197 l 124 -224 b 396 -290 174 -249 276 -290 b 793 1 584 -290 756 -213 l 910 674 l 884 674 l 863 580 b 564 687 799 627 701 687 b 173 275 331 687 173 533 b 456 -7 173 85 274 -7 b 782 107 622 -7 755 90 l 767 25 b 397 -260 718 -249 474 -260 b 138 -197 289 -260 188 -222 z m 206 272 b 567 657 206 493 328 657 b 857 547 672 657 770 616 l 788 147 b 460 23 731 103 595 23 b 206 272 314 23 206 93 z m 481 907 b 613 773 481 826 517 773 b 797 935 717 773 769 827 l 769 941 b 617 801 739 838 691 801 b 510 915 549 801 510 827 b 512 942 510 923 511 932 l 483 942 b 481 907 482 930 481 918 z "},"ġ":{"ha":948,"x_min":0,"x_max":0,"o":"m 613 874 l 599 790 l 631 790 l 645 874 z m 124 -224 b 396 -290 174 -249 276 -290 b 793 1 584 -290 756 -213 l 910 674 l 884 674 l 863 580 b 564 687 799 627 701 687 b 173 275 331 687 173 533 b 456 -7 173 85 274 -7 b 782 107 622 -7 755 90 l 767 25 b 397 -260 718 -249 474 -260 b 138 -197 289 -260 188 -222 z m 206 272 b 567 657 206 493 328 657 b 857 547 672 657 770 616 l 788 147 b 460 23 731 103 595 23 b 206 272 314 23 206 93 z "},"ģ":{"ha":948,"x_min":0,"x_max":0,"o":"m 708 1065 l 633 948 l 608 809 l 640 809 l 662 933 l 733 1047 z m 124 -224 b 396 -290 174 -249 276 -290 b 793 1 584 -290 756 -213 l 910 674 l 884 674 l 863 580 b 564 687 799 627 701 687 b 173 275 331 687 173 533 b 456 -7 173 85 274 -7 b 782 107 622 -7 755 90 l 767 25 b 397 -260 718 -249 474 -260 b 138 -197 289 -260 188 -222 z m 206 272 b 567 657 206 493 328 657 b 857 547 672 657 770 616 l 788 147 b 460 23 731 103 595 23 b 206 272 314 23 206 93 z "},"h":{"ha":949,"x_min":0,"x_max":0,"o":"m 324 982 l 155 0 l 185 0 l 278 541 b 651 656 336 581 513 656 b 859 494 778 656 859 624 b 851 417 859 472 856 446 l 779 0 l 809 0 l 885 438 b 891 505 889 463 891 485 b 656 686 891 632 810 686 b 284 575 502 686 335 608 l 354 982 z "},"ĥ":{"ha":949,"x_min":0,"x_max":0,"o":"m 443 1094 l 464 1071 l 663 1244 l 804 1071 l 827 1091 l 681 1268 l 648 1268 z m 155 0 l 185 0 l 278 541 b 651 656 336 581 513 656 b 859 494 778 656 859 624 b 851 417 859 472 856 446 l 779 0 l 809 0 l 885 438 b 891 505 889 463 891 485 b 656 686 891 632 810 686 b 284 575 502 686 335 608 l 354 982 l 324 982 z "},"i":{"ha":340,"x_min":0,"x_max":0,"o":"m 272 674 l 155 0 l 185 0 l 301 674 z m 292 790 l 322 790 l 335 874 l 306 874 z "},"ì":{"ha":340,"x_min":0,"x_max":0,"o":"m 126 958 l 295 772 l 317 792 l 151 981 z m 155 0 l 185 0 l 301 674 l 272 674 z "},"í":{"ha":340,"x_min":0,"x_max":0,"o":"m 272 674 l 155 0 l 185 0 l 301 674 z m 284 796 l 303 773 l 515 950 l 493 976 z "},"î":{"ha":340,"x_min":0,"x_max":0,"o":"m 124 794 l 147 774 l 324 958 l 434 773 l 462 788 l 341 985 l 310 985 z m 155 0 l 185 0 l 301 674 l 272 674 z "},"ï":{"ha":340,"x_min":0,"x_max":0,"o":"m 222 874 l 208 790 l 241 790 l 255 874 z m 155 0 l 185 0 l 301 674 l 272 674 z m 361 790 l 394 790 l 408 874 l 375 874 z "},"ĩ":{"ha":340,"x_min":0,"x_max":0,"o":"m 272 674 l 155 0 l 185 0 l 301 674 z m 88 807 l 110 788 b 213 863 150 842 183 863 b 292 826 240 863 251 855 b 397 783 337 793 362 783 b 522 870 442 783 476 803 l 498 887 b 397 811 462 833 435 811 b 311 849 368 811 349 822 b 213 892 260 885 247 892 b 88 807 176 892 135 873 z "},"ī":{"ha":340,"x_min":0,"x_max":0,"o":"m 272 674 l 155 0 l 185 0 l 301 674 z m 110 790 l 482 790 l 486 817 l 114 817 z "},"ĭ":{"ha":340,"x_min":0,"x_max":0,"o":"m 272 674 l 155 0 l 185 0 l 301 674 z m 171 907 b 302 773 171 826 206 773 b 487 935 406 773 459 827 l 459 941 b 307 801 428 838 381 801 b 200 915 239 801 200 827 b 201 942 200 923 201 932 l 173 942 b 171 907 172 930 171 918 z "},"į":{"ha":340,"x_min":0,"x_max":0,"o":"m 124 -278 b 219 -258 162 -278 191 -271 l 210 -235 b 129 -253 186 -246 160 -253 b 35 -167 68 -253 35 -223 b 184 0 35 -103 67 -53 l 301 674 l 271 674 l 156 12 b 3 -166 44 -36 3 -97 b 124 -278 3 -242 51 -278 z m 291 790 l 321 790 l 335 874 l 305 874 z "},"j":{"ha":428,"x_min":0,"x_max":0,"o":"m 17 -258 l 30 -287 b 271 -16 157 -218 249 -141 l 390 674 l 360 674 l 244 1 b 17 -258 225 -108 144 -187 z m 381 790 l 410 790 l 424 874 l 394 874 z "},"ĵ":{"ha":352,"x_min":0,"x_max":0,"o":"m 197 1 b -30 -258 178 -108 98 -187 l -17 -287 b 224 -16 110 -218 203 -141 l 344 674 l 314 674 z m 165 794 l 188 774 l 365 958 l 475 773 l 503 788 l 382 985 l 351 985 z "},"k":{"ha":886,"x_min":0,"x_max":0,"o":"m 549 395 l 790 -8 l 816 8 l 572 414 l 894 647 l 878 672 l 219 194 l 355 982 l 325 982 l 156 0 l 185 0 l 212 153 z "},"ķ":{"ha":886,"x_min":0,"x_max":0,"o":"m 392 -362 l 467 -245 l 492 -106 l 460 -106 l 438 -231 l 367 -344 z m 156 0 l 185 0 l 212 153 l 549 395 l 790 -8 l 816 8 l 572 414 l 894 647 l 878 672 l 219 194 l 355 982 l 325 982 z "},"l":{"ha":340,"x_min":0,"x_max":0,"o":"m 324 982 l 155 0 l 185 0 l 354 982 z "},"ĺ":{"ha":340,"x_min":0,"x_max":0,"o":"m 332 1085 l 345 1057 l 633 1186 l 618 1219 z m 155 0 l 185 0 l 354 982 l 324 982 z "},"ļ":{"ha":340,"x_min":0,"x_max":0,"o":"m 72 -362 l 147 -245 l 172 -106 l 140 -106 l 118 -231 l 47 -344 z m 155 0 l 185 0 l 354 982 l 324 982 z "},"ľ":{"ha":363,"x_min":0,"x_max":0,"o":"m 506 983 l 443 765 l 468 757 l 537 974 z m 155 0 l 185 0 l 354 982 l 324 982 z "},"m":{"ha":1450,"x_min":0,"x_max":0,"o":"m 272 674 l 155 0 l 185 0 l 278 540 b 623 656 303 558 446 656 b 805 519 741 656 805 619 b 800 466 805 503 803 485 l 719 0 l 749 0 l 838 517 b 1181 656 882 554 1014 656 b 1360 503 1300 656 1360 622 b 1351 407 1360 476 1357 444 l 1281 0 l 1310 0 l 1386 438 b 1393 513 1391 466 1393 490 b 1183 686 1393 647 1310 686 b 837 551 1013 686 883 590 b 624 686 826 644 760 686 b 284 575 454 686 314 598 l 297 674 z "},"n":{"ha":949,"x_min":0,"x_max":0,"o":"m 272 674 l 155 0 l 185 0 l 278 541 b 651 656 336 581 513 656 b 859 494 778 656 859 624 b 851 417 859 472 856 446 l 779 0 l 809 0 l 885 438 b 891 505 889 463 891 485 b 656 686 891 632 810 686 b 284 575 502 686 335 608 l 297 674 z "},"ñ":{"ha":949,"x_min":0,"x_max":0,"o":"m 272 674 l 155 0 l 185 0 l 278 541 b 651 656 336 581 513 656 b 859 494 778 656 859 624 b 851 417 859 472 856 446 l 779 0 l 809 0 l 885 438 b 891 505 889 463 891 485 b 656 686 891 632 810 686 b 284 575 502 686 335 608 l 297 674 z m 419 807 l 442 788 b 544 863 482 842 515 863 b 624 826 572 863 583 855 b 729 783 669 793 694 783 b 853 870 774 783 808 803 l 830 887 b 729 811 794 833 767 811 b 643 849 700 811 681 822 b 544 892 592 885 578 892 b 419 807 508 892 467 873 z "},"ń":{"ha":949,"x_min":0,"x_max":0,"o":"m 551 796 l 571 773 l 783 950 l 760 976 z m 155 0 l 185 0 l 278 541 b 651 656 336 581 513 656 b 859 494 778 656 859 624 b 851 417 859 472 856 446 l 779 0 l 809 0 l 885 438 b 891 505 889 463 891 485 b 656 686 891 632 810 686 b 284 575 502 686 335 608 l 297 674 l 272 674 z "},"ņ":{"ha":949,"x_min":0,"x_max":0,"o":"m 408 -362 l 484 -245 l 508 -106 l 476 -106 l 455 -231 l 383 -344 z m 155 0 l 185 0 l 278 541 b 651 656 336 581 513 656 b 859 494 778 656 859 624 b 851 417 859 472 856 446 l 779 0 l 809 0 l 885 438 b 891 505 889 463 891 485 b 656 686 891 632 810 686 b 284 575 502 686 335 608 l 297 674 l 272 674 z "},"ň":{"ha":949,"x_min":0,"x_max":0,"o":"m 490 968 l 608 773 l 640 773 l 824 962 l 803 984 l 626 800 l 515 985 z m 155 0 l 185 0 l 278 541 b 651 656 336 581 513 656 b 859 494 778 656 859 624 b 851 417 859 472 856 446 l 779 0 l 809 0 l 885 438 b 891 505 889 463 891 485 b 656 686 891 632 810 686 b 284 575 502 686 335 608 l 297 674 l 272 674 z "},"o":{"ha":988,"x_min":0,"x_max":0,"o":"m 593 686 b 165 292 328 686 165 519 b 512 -8 165 104 305 -8 b 938 385 783 -8 938 156 b 593 686 938 581 801 686 z m 198 299 b 595 656 198 509 357 656 b 906 378 787 656 906 560 b 510 22 906 168 757 22 b 198 299 332 22 198 119 z "},"ò":{"ha":988,"x_min":0,"x_max":0,"o":"m 474 958 l 643 772 l 665 792 l 499 981 z m 165 292 b 512 -8 165 104 305 -8 b 938 385 783 -8 938 156 b 593 686 938 581 801 686 b 165 292 328 686 165 519 z m 198 299 b 595 656 198 509 357 656 b 906 378 787 656 906 560 b 510 22 906 168 757 22 b 198 299 332 22 198 119 z "},"ó":{"ha":988,"x_min":0,"x_max":0,"o":"m 560 796 l 579 773 l 791 950 l 769 976 z m 165 292 b 512 -8 165 104 305 -8 b 938 385 783 -8 938 156 b 593 686 938 581 801 686 b 165 292 328 686 165 519 z m 198 299 b 595 656 198 509 357 656 b 906 378 787 656 906 560 b 510 22 906 168 757 22 b 198 299 332 22 198 119 z "},"ô":{"ha":988,"x_min":0,"x_max":0,"o":"m 441 794 l 463 774 l 640 958 l 751 773 l 778 788 l 658 985 l 627 985 z m 165 292 b 512 -8 165 104 305 -8 b 938 385 783 -8 938 156 b 593 686 938 581 801 686 b 165 292 328 686 165 519 z m 198 299 b 595 656 198 509 357 656 b 906 378 787 656 906 560 b 510 22 906 168 757 22 b 198 299 332 22 198 119 z "},"õ":{"ha":988,"x_min":0,"x_max":0,"o":"m 593 686 b 165 292 328 686 165 519 b 512 -8 165 104 305 -8 b 938 385 783 -8 938 156 b 593 686 938 581 801 686 z m 198 299 b 595 656 198 509 357 656 b 906 378 787 656 906 560 b 510 22 906 168 757 22 b 198 299 332 22 198 119 z m 410 807 l 433 788 b 535 863 472 842 506 863 b 614 826 563 863 574 855 b 719 783 659 793 684 783 b 844 870 765 783 798 803 l 820 887 b 719 811 784 833 757 811 b 633 849 690 811 671 822 b 535 892 582 885 569 892 b 410 807 499 892 457 873 z "},"ö":{"ha":988,"x_min":0,"x_max":0,"o":"m 528 874 l 515 790 l 547 790 l 561 874 z m 165 292 b 512 -8 165 104 305 -8 b 938 385 783 -8 938 156 b 593 686 938 581 801 686 b 165 292 328 686 165 519 z m 198 299 b 595 656 198 509 357 656 b 906 378 787 656 906 560 b 510 22 906 168 757 22 b 198 299 332 22 198 119 z m 667 790 l 700 790 l 714 874 l 681 874 z "},"ō":{"ha":988,"x_min":0,"x_max":0,"o":"m 593 686 b 165 292 328 686 165 519 b 512 -8 165 104 305 -8 b 938 385 783 -8 938 156 b 593 686 938 581 801 686 z m 198 299 b 595 656 198 509 357 656 b 906 378 787 656 906 560 b 510 22 906 168 757 22 b 198 299 332 22 198 119 z m 425 790 l 797 790 l 801 817 l 429 817 z "},"ŏ":{"ha":988,"x_min":0,"x_max":0,"o":"m 593 686 b 165 292 328 686 165 519 b 512 -8 165 104 305 -8 b 938 385 783 -8 938 156 b 593 686 938 581 801 686 z m 198 299 b 595 656 198 509 357 656 b 906 378 787 656 906 560 b 510 22 906 168 757 22 b 198 299 332 22 198 119 z m 481 907 b 613 773 481 826 517 773 b 797 935 717 773 769 827 l 769 941 b 617 801 739 838 691 801 b 510 915 549 801 510 827 b 512 942 510 923 511 932 l 483 942 b 481 907 482 930 481 918 z "},"ő":{"ha":988,"x_min":0,"x_max":0,"o":"m 476 790 l 497 773 l 667 956 l 644 977 z m 165 292 b 512 -8 165 104 305 -8 b 938 385 783 -8 938 156 b 593 686 938 581 801 686 b 165 292 328 686 165 519 z m 198 299 b 595 656 198 509 357 656 b 906 378 787 656 906 560 b 510 22 906 168 757 22 b 198 299 332 22 198 119 z m 681 794 l 699 773 l 890 941 l 869 967 z "},"p":{"ha":938,"x_min":0,"x_max":0,"o":"m 272 674 l 108 -274 l 138 -274 l 199 85 b 502 -8 240 59 349 -8 b 889 393 748 -8 889 159 b 599 685 889 574 785 685 b 284 574 442 685 328 607 l 298 674 z m 205 118 l 276 532 b 594 655 331 576 449 655 b 856 383 757 655 856 564 b 504 22 856 146 674 22 b 205 118 402 22 294 63 z "},"q":{"ha":940,"x_min":0,"x_max":0,"o":"m 447 -8 b 774 106 613 -8 747 88 l 708 -274 l 738 -274 l 901 674 l 875 674 l 855 580 b 556 685 791 626 692 685 b 165 274 323 685 165 531 b 447 -8 165 85 261 -8 z m 197 272 b 558 655 197 491 319 655 b 849 547 663 655 762 614 l 780 146 b 451 21 723 101 587 21 b 197 272 306 21 197 92 z "},"r":{"ha":579,"x_min":0,"x_max":0,"o":"m 154 0 l 184 0 l 274 519 b 649 656 436 612 517 642 l 645 688 b 279 551 513 674 414 633 l 297 674 l 271 674 z "},"ŕ":{"ha":579,"x_min":0,"x_max":0,"o":"m 154 0 l 184 0 l 274 519 b 649 656 436 612 517 642 l 645 688 b 279 551 513 674 414 633 l 297 674 l 271 674 z m 359 796 l 378 773 l 590 950 l 568 976 z "},"ŗ":{"ha":579,"x_min":0,"x_max":0,"o":"m 70 -362 l 146 -245 l 170 -106 l 138 -106 l 117 -231 l 45 -344 z m 154 0 l 184 0 l 274 519 b 649 656 436 612 517 642 l 645 688 b 279 551 513 674 414 633 l 297 674 l 271 674 z "},"ř":{"ha":579,"x_min":0,"x_max":0,"o":"m 154 0 l 184 0 l 274 519 b 649 656 436 612 517 642 l 645 688 b 279 551 513 674 414 633 l 297 674 l 271 674 z m 320 968 l 439 773 l 470 773 l 654 962 l 633 984 l 456 800 l 346 985 z "},"s":{"ha":828,"x_min":0,"x_max":0,"o":"m 113 74 l 101 44 b 423 -8 168 20 289 -8 b 764 203 617 -8 764 58 b 506 372 764 347 636 365 b 226 486 367 378 226 372 b 509 658 226 598 344 658 b 753 624 606 658 682 643 l 762 652 b 506 688 697 670 611 688 b 196 486 334 688 196 617 b 483 341 196 347 343 347 b 734 200 611 335 734 325 b 425 21 734 65 558 21 b 113 74 296 21 183 49 z "},"ś":{"ha":828,"x_min":0,"x_max":0,"o":"m 113 74 l 101 44 b 423 -8 168 20 289 -8 b 764 203 617 -8 764 58 b 506 372 764 347 636 365 b 226 486 367 378 226 372 b 509 658 226 598 344 658 b 753 624 606 658 682 643 l 762 652 b 506 688 697 670 611 688 b 196 486 334 688 196 617 b 483 341 196 347 343 347 b 734 200 611 335 734 325 b 425 21 734 65 558 21 b 113 74 296 21 183 49 z m 483 796 l 502 773 l 714 950 l 692 976 z "},"ŝ":{"ha":828,"x_min":0,"x_max":0,"o":"m 113 74 l 101 44 b 423 -8 168 20 289 -8 b 764 203 617 -8 764 58 b 506 372 764 347 636 365 b 226 486 367 378 226 372 b 509 658 226 598 344 658 b 753 624 606 658 682 643 l 762 652 b 506 688 697 670 611 688 b 196 486 334 688 196 617 b 483 341 196 347 343 347 b 734 200 611 335 734 325 b 425 21 734 65 558 21 b 113 74 296 21 183 49 z m 347 790 l 369 769 l 546 953 l 656 768 l 684 783 l 563 981 l 533 981 z "},"ş":{"ha":828,"x_min":0,"x_max":0,"o":"m 113 74 l 101 44 b 383 -8 161 23 265 -3 b 460 -134 453 -38 460 -85 b 326 -251 460 -224 387 -251 b 235 -237 292 -251 256 -244 l 228 -264 b 322 -277 248 -271 283 -277 b 492 -135 424 -277 492 -228 b 434 -8 492 -81 476 -37 b 764 203 622 -6 764 60 b 506 372 764 347 636 365 b 226 486 367 378 226 372 b 509 658 226 598 344 658 b 753 624 606 658 682 643 l 762 652 b 506 688 697 670 611 688 b 196 486 334 688 196 617 b 483 341 196 347 343 347 b 734 200 611 335 734 325 b 425 21 734 65 558 21 b 113 74 296 21 183 49 z "},"š":{"ha":828,"x_min":0,"x_max":0,"o":"m 113 74 l 101 44 b 423 -8 168 20 289 -8 b 764 203 617 -8 764 58 b 506 372 764 347 636 365 b 226 486 367 378 226 372 b 509 658 226 598 344 658 b 753 624 606 658 682 643 l 762 652 b 506 688 697 670 611 688 b 196 486 334 688 196 617 b 483 341 196 347 343 347 b 734 200 611 335 734 325 b 425 21 734 65 558 21 b 113 74 296 21 183 49 z m 398 968 l 517 773 l 548 773 l 732 962 l 711 984 l 534 800 l 424 985 z "},"ș":{"ha":828,"x_min":0,"x_max":0,"o":"m 340 -362 l 415 -245 l 440 -106 l 408 -106 l 386 -231 l 315 -344 z m 101 44 b 423 -8 168 20 289 -8 b 764 203 617 -8 764 58 b 506 372 764 347 636 365 b 226 486 367 378 226 372 b 509 658 226 598 344 658 b 753 624 606 658 682 643 l 762 652 b 506 688 697 670 611 688 b 196 486 334 688 196 617 b 483 341 196 347 343 347 b 734 200 611 335 734 325 b 425 21 734 65 558 21 b 113 74 296 21 183 49 z "},"t":{"ha":672,"x_min":0,"x_max":0,"o":"m 395 -8 b 596 22 486 -8 556 10 l 589 50 b 397 20 549 37 475 20 b 265 124 317 20 265 49 b 269 158 265 134 267 145 l 353 646 l 690 646 l 694 674 l 358 674 l 390 856 l 360 856 l 328 674 l 181 674 l 176 646 l 324 646 l 239 158 b 235 117 236 143 235 130 b 395 -8 235 28 297 -8 z "},"ţ":{"ha":672,"x_min":0,"x_max":0,"o":"m 288 -374 l 363 -258 l 388 -119 l 356 -119 l 334 -243 l 263 -357 z m 176 646 l 324 646 l 239 158 b 235 117 236 143 235 130 b 395 -8 235 28 297 -8 b 596 22 486 -8 556 10 l 589 50 b 397 20 549 37 475 20 b 265 124 317 20 265 49 b 269 158 265 134 267 145 l 353 646 l 690 646 l 694 674 l 358 674 l 390 856 l 360 856 l 328 674 l 181 674 z "},"ť":{"ha":672,"x_min":0,"x_max":0,"o":"m 578 1071 l 515 853 l 540 844 l 609 1062 z m 176 646 l 324 646 l 239 158 b 235 117 236 143 235 130 b 395 -8 235 28 297 -8 b 596 22 486 -8 556 10 l 589 50 b 397 20 549 37 475 20 b 265 124 317 20 265 49 b 269 158 265 134 267 145 l 353 646 l 690 646 l 694 674 l 358 674 l 390 856 l 360 856 l 328 674 l 181 674 z "},"ț":{"ha":672,"x_min":0,"x_max":0,"o":"m 279 -362 l 355 -245 l 379 -106 l 347 -106 l 326 -231 l 254 -344 z m 176 646 l 324 646 l 239 158 b 235 117 236 143 235 130 b 395 -8 235 28 297 -8 b 596 22 486 -8 556 10 l 589 50 b 397 20 549 37 475 20 b 265 124 317 20 265 49 b 269 158 265 134 267 145 l 353 646 l 690 646 l 694 674 l 358 674 l 390 856 l 360 856 l 328 674 l 181 674 z "},"u":{"ha":949,"x_min":0,"x_max":0,"o":"m 181 239 b 174 168 176 213 174 190 b 415 -9 174 30 267 -9 b 781 100 596 -9 753 79 l 768 0 l 794 0 l 910 674 l 881 674 l 787 134 b 416 23 760 117 594 23 b 208 184 278 23 208 57 b 216 272 208 210 210 239 l 286 674 l 256 674 z "},"ù":{"ha":949,"x_min":0,"x_max":0,"o":"m 455 958 l 624 772 l 646 792 l 480 981 z m 174 168 b 415 -9 174 30 267 -9 b 781 100 596 -9 753 79 l 768 0 l 794 0 l 910 674 l 881 674 l 787 134 b 416 23 760 117 594 23 b 208 184 278 23 208 57 b 216 272 208 210 210 239 l 286 674 l 256 674 l 181 239 b 174 168 176 213 174 190 z "},"ú":{"ha":949,"x_min":0,"x_max":0,"o":"m 181 239 b 174 168 176 213 174 190 b 415 -9 174 30 267 -9 b 781 100 596 -9 753 79 l 768 0 l 794 0 l 910 674 l 881 674 l 787 134 b 416 23 760 117 594 23 b 208 184 278 23 208 57 b 216 272 208 210 210 239 l 286 674 l 256 674 z m 550 796 l 569 773 l 781 950 l 759 976 z "},"û":{"ha":949,"x_min":0,"x_max":0,"o":"m 434 794 l 456 774 l 633 958 l 744 773 l 772 788 l 651 985 l 620 985 z m 174 168 b 415 -9 174 30 267 -9 b 781 100 596 -9 753 79 l 768 0 l 794 0 l 910 674 l 881 674 l 787 134 b 416 23 760 117 594 23 b 208 184 278 23 208 57 b 216 272 208 210 210 239 l 286 674 l 256 674 l 181 239 b 174 168 176 213 174 190 z "},"ü":{"ha":949,"x_min":0,"x_max":0,"o":"m 513 874 l 499 790 l 532 790 l 546 874 z m 174 168 b 415 -9 174 30 267 -9 b 781 100 596 -9 753 79 l 768 0 l 794 0 l 910 674 l 881 674 l 787 134 b 416 23 760 117 594 23 b 208 184 278 23 208 57 b 216 272 208 210 210 239 l 286 674 l 256 674 l 181 239 b 174 168 176 213 174 190 z m 652 790 l 685 790 l 699 874 l 666 874 z "},"ũ":{"ha":949,"x_min":0,"x_max":0,"o":"m 181 239 b 174 168 176 213 174 190 b 415 -9 174 30 267 -9 b 781 100 596 -9 753 79 l 768 0 l 794 0 l 910 674 l 881 674 l 787 134 b 416 23 760 117 594 23 b 208 184 278 23 208 57 b 216 272 208 210 210 239 l 286 674 l 256 674 z m 397 807 l 420 788 b 522 863 460 842 493 863 b 601 826 550 863 561 855 b 707 783 647 793 672 783 b 831 870 752 783 785 803 l 808 887 b 707 811 772 833 744 811 b 621 849 678 811 658 822 b 522 892 569 885 556 892 b 397 807 486 892 444 873 z "},"ū":{"ha":949,"x_min":0,"x_max":0,"o":"m 181 239 b 174 168 176 213 174 190 b 415 -9 174 30 267 -9 b 781 100 596 -9 753 79 l 768 0 l 794 0 l 910 674 l 881 674 l 787 134 b 416 23 760 117 594 23 b 208 184 278 23 208 57 b 216 272 208 210 210 239 l 286 674 l 256 674 z m 419 790 l 791 790 l 795 817 l 423 817 z "},"ŭ":{"ha":949,"x_min":0,"x_max":0,"o":"m 181 239 b 174 168 176 213 174 190 b 415 -9 174 30 267 -9 b 781 100 596 -9 753 79 l 768 0 l 794 0 l 910 674 l 881 674 l 787 134 b 416 23 760 117 594 23 b 208 184 278 23 208 57 b 216 272 208 210 210 239 l 286 674 l 256 674 z m 464 907 b 595 773 464 826 499 773 b 780 935 699 773 752 827 l 752 941 b 600 801 722 838 674 801 b 493 915 532 801 493 827 b 494 942 493 923 494 932 l 466 942 b 464 907 465 930 464 918 z "},"ů":{"ha":949,"x_min":0,"x_max":0,"o":"m 181 239 b 174 168 176 213 174 190 b 415 -9 174 30 267 -9 b 781 100 596 -9 753 79 l 768 0 l 794 0 l 910 674 l 881 674 l 787 134 b 416 23 760 117 594 23 b 208 184 278 23 208 57 b 216 272 208 210 210 239 l 286 674 l 256 674 z m 488 856 b 599 759 488 794 528 759 b 742 877 681 759 742 808 b 628 976 742 939 700 976 b 488 856 547 976 488 925 z m 517 858 b 625 951 517 910 565 951 b 712 873 683 951 712 924 b 602 783 712 823 663 783 b 517 858 547 783 517 809 z "},"ű":{"ha":949,"x_min":0,"x_max":0,"o":"m 181 239 b 174 168 176 213 174 190 b 415 -9 174 30 267 -9 b 781 100 596 -9 753 79 l 768 0 l 794 0 l 910 674 l 881 674 l 787 134 b 416 23 760 117 594 23 b 208 184 278 23 208 57 b 216 272 208 210 210 239 l 286 674 l 256 674 z m 474 790 l 495 773 l 665 956 l 642 977 z m 678 794 l 697 773 l 888 941 l 867 967 z "},"ų":{"ha":949,"x_min":0,"x_max":0,"o":"m 794 0 l 910 674 l 881 674 l 787 134 b 416 23 760 117 594 23 b 208 184 278 23 208 57 b 216 272 208 210 210 239 l 286 674 l 256 674 l 181 239 b 174 168 176 213 174 190 b 415 -9 174 30 267 -9 b 781 100 596 -9 753 79 l 770 14 b 597 -166 641 -36 597 -96 b 718 -278 597 -242 644 -278 b 813 -258 756 -278 785 -271 l 803 -234 b 723 -253 779 -246 753 -253 b 628 -167 662 -253 628 -223 b 794 0 628 -103 665 -53 z "},"v":{"ha":735,"x_min":0,"x_max":0,"o":"m 144 672 l 351 0 l 389 0 l 822 666 l 795 683 l 374 28 l 173 682 z "},"w":{"ha":1215,"x_min":0,"x_max":0,"o":"m 165 673 l 324 0 l 368 0 l 717 643 l 850 0 l 893 0 l 1281 665 l 1255 681 l 876 31 l 742 674 l 699 674 l 350 33 l 195 682 z "},"ŵ":{"ha":1215,"x_min":0,"x_max":0,"o":"m 542 794 l 565 774 l 742 958 l 852 773 l 880 788 l 759 985 l 728 985 z m 165 673 l 324 0 l 368 0 l 717 643 l 850 0 l 893 0 l 1281 665 l 1255 681 l 876 31 l 742 674 l 699 674 l 350 33 l 195 682 z "},"ẁ":{"ha":1215,"x_min":0,"x_max":0,"o":"m 560 958 l 730 772 l 751 792 l 585 981 z m 165 673 l 324 0 l 368 0 l 717 643 l 850 0 l 893 0 l 1281 665 l 1255 681 l 876 31 l 742 674 l 699 674 l 350 33 l 195 682 z "},"ẃ":{"ha":1215,"x_min":0,"x_max":0,"o":"m 703 796 l 722 773 l 934 950 l 912 976 z m 165 673 l 324 0 l 368 0 l 717 643 l 850 0 l 893 0 l 1281 665 l 1255 681 l 876 31 l 742 674 l 699 674 l 350 33 l 195 682 z "},"ẅ":{"ha":1215,"x_min":0,"x_max":0,"o":"m 647 874 l 633 790 l 665 790 l 679 874 z m 165 673 l 324 0 l 368 0 l 717 643 l 850 0 l 893 0 l 1281 665 l 1255 681 l 876 31 l 742 674 l 699 674 l 350 33 l 195 682 z m 785 790 l 818 790 l 832 874 l 799 874 z "},"x":{"ha":799,"x_min":0,"x_max":0,"o":"m 53 15 l 73 -8 l 463 338 l 732 -8 l 756 13 l 487 358 l 823 663 l 801 686 l 469 382 l 230 686 l 206 666 l 444 361 z "},"y":{"ha":772,"x_min":0,"x_max":0,"o":"m 223 -286 l 863 665 l 835 684 l 401 38 l 194 684 l 162 674 l 379 4 l 197 -267 z "},"ý":{"ha":772,"x_min":0,"x_max":0,"o":"m 223 -286 l 863 665 l 835 684 l 401 38 l 194 684 l 162 674 l 379 4 l 197 -267 z m 482 796 l 501 773 l 713 950 l 691 976 z "},"ÿ":{"ha":772,"x_min":0,"x_max":0,"o":"m 223 -286 l 863 665 l 835 684 l 401 38 l 194 684 l 162 674 l 379 4 l 197 -267 z m 426 790 l 458 790 l 472 874 l 440 874 z m 578 790 l 611 790 l 625 874 l 592 874 z "},"ŷ":{"ha":772,"x_min":0,"x_max":0,"o":"m 223 -286 l 863 665 l 835 684 l 401 38 l 194 684 l 162 674 l 379 4 l 197 -267 z m 356 794 l 378 774 l 555 958 l 665 773 l 693 788 l 572 985 l 542 985 z "},"z":{"ha":815,"x_min":0,"x_max":0,"o":"m 92 37 l 87 0 l 744 0 l 749 28 l 125 28 l 822 638 l 828 674 l 231 674 l 227 646 l 792 646 z "},"ź":{"ha":815,"x_min":0,"x_max":0,"o":"m 92 37 l 87 0 l 744 0 l 749 28 l 125 28 l 822 638 l 828 674 l 231 674 l 227 646 l 792 646 z m 482 796 l 501 773 l 713 950 l 691 976 z "},"ż":{"ha":815,"x_min":0,"x_max":0,"o":"m 544 874 l 530 790 l 563 790 l 576 874 z m 87 0 l 744 0 l 749 28 l 125 28 l 822 638 l 828 674 l 231 674 l 227 646 l 792 646 l 92 37 z "},"ž":{"ha":815,"x_min":0,"x_max":0,"o":"m 92 37 l 87 0 l 744 0 l 749 28 l 125 28 l 822 638 l 828 674 l 231 674 l 227 646 l 792 646 z m 403 968 l 522 773 l 553 773 l 738 962 l 717 984 l 540 800 l 429 985 z "},"ª":{"ha":615,"x_min":0,"x_max":0,"o":"m 344 448 b 578 528 451 448 532 496 l 568 457 l 596 457 l 638 701 b 640 733 640 712 640 723 b 472 847 640 801 597 847 b 310 822 408 847 341 833 l 316 797 b 469 820 342 805 399 820 b 610 730 569 820 610 790 b 604 682 610 713 608 695 b 463 697 581 688 525 697 b 208 549 319 697 208 653 b 344 448 208 467 275 448 z m 240 553 b 455 671 240 629 325 671 b 600 656 524 671 576 663 l 583 560 b 350 474 529 521 441 474 b 240 553 278 474 240 503 z "},"º":{"ha":643,"x_min":0,"x_max":0,"o":"m 399 451 b 652 674 524 451 652 524 b 440 855 652 794 560 855 b 188 632 316 855 188 775 b 399 451 188 519 270 451 z m 218 635 b 439 828 218 755 324 828 b 622 671 544 828 622 775 b 401 477 622 550 516 477 b 218 635 294 477 218 527 z "},"ß":{"ha":896,"x_min":0,"x_max":0,"o":"m 319 70 l 303 42 b 522 -10 353 14 423 -10 b 829 301 688 -10 829 68 b 680 503 829 437 776 494 b 849 744 774 528 849 608 b 603 953 849 891 736 953 b 273 700 443 953 304 881 l 152 0 l 183 0 l 301 696 b 599 923 327 845 442 923 b 818 743 726 923 818 863 b 594 510 818 563 674 510 l 491 510 l 486 482 l 622 482 b 798 301 738 482 798 439 b 527 20 798 134 711 20 b 319 70 430 20 368 44 z "},"æ":{"ha":1492,"x_min":0,"x_max":0,"o":"m 360 -8 b 773 152 540 -8 686 89 b 1050 -8 815 47 911 -8 b 1330 88 1156 -8 1231 23 l 1314 116 b 1053 22 1212 47 1144 22 b 780 320 862 22 766 133 l 1383 320 b 1398 419 1390 340 1398 375 b 1135 687 1398 577 1301 687 b 804 499 995 687 860 614 b 598 686 810 617 735 686 b 320 628 472 686 367 649 l 331 597 b 591 656 377 618 476 656 b 778 502 703 656 778 615 b 760 392 778 452 770 422 b 637 400 740 395 692 400 b 158 149 306 400 158 301 b 360 -8 158 25 263 -8 z m 190 147 b 638 371 190 295 349 371 b 756 364 695 371 733 366 b 750 292 751 341 750 317 b 764 182 750 251 755 215 b 363 21 670 108 515 21 b 190 147 252 21 190 67 z m 783 348 b 1133 657 810 549 962 657 b 1367 422 1281 657 1367 564 b 1358 348 1367 394 1363 364 z "},"ǽ":{"ha":1492,"x_min":0,"x_max":0,"o":"m 360 -8 b 773 152 540 -8 686 89 b 1050 -8 815 47 911 -8 b 1330 88 1156 -8 1231 23 l 1314 116 b 1053 22 1212 47 1144 22 b 780 320 862 22 766 133 l 1383 320 b 1398 419 1390 340 1398 375 b 1135 687 1398 577 1301 687 b 804 499 995 687 860 614 b 598 686 810 617 735 686 b 320 628 472 686 367 649 l 331 597 b 591 656 377 618 476 656 b 778 502 703 656 778 615 b 760 392 778 452 770 422 b 637 400 740 395 692 400 b 158 149 306 400 158 301 b 360 -8 158 25 263 -8 z m 190 147 b 638 371 190 295 349 371 b 756 364 695 371 733 366 b 750 292 751 341 750 317 b 764 182 750 251 755 215 b 363 21 670 108 515 21 b 190 147 252 21 190 67 z m 783 348 b 1133 657 810 549 962 657 b 1367 422 1281 657 1367 564 b 1358 348 1367 394 1363 364 z m 821 796 l 840 773 l 1052 950 l 1030 976 z "},"ð":{"ha":944,"x_min":0,"x_max":0,"o":"m 472 -16 b 907 446 747 -16 906 163 b 726 902 907 612 887 801 l 803 1001 l 783 1018 l 703 916 b 463 965 642 946 563 963 l 460 935 b 684 890 552 932 626 917 l 580 760 l 602 742 l 708 875 b 876 457 820 806 876 678 b 558 633 806 584 667 633 b 166 277 363 633 166 510 b 472 -16 166 63 320 -16 z m 199 278 b 559 603 199 497 378 603 b 874 396 669 603 818 542 b 479 14 852 97 633 14 b 199 278 327 14 199 94 z "},"ø":{"ha":986,"x_min":0,"x_max":0,"o":"m 101 15 l 117 -8 l 243 88 b 511 -8 304 26 397 -8 b 938 385 782 -8 938 156 b 880 572 938 461 917 524 l 997 660 l 978 685 l 859 594 b 592 686 799 655 706 686 b 165 292 328 686 165 519 b 224 109 165 219 185 158 z m 197 299 b 594 656 197 509 356 656 b 833 574 697 656 780 628 l 251 130 b 197 299 217 174 197 231 z m 270 108 l 853 551 b 905 378 887 508 905 449 b 509 22 905 168 756 22 b 270 108 411 22 326 51 z "},"ǿ":{"ha":987,"x_min":0,"x_max":0,"o":"m 101 15 l 118 -8 l 244 88 b 512 -8 305 26 398 -8 b 938 385 783 -8 938 156 b 881 572 938 461 917 524 l 997 660 l 979 685 l 860 594 b 593 686 799 655 707 686 b 165 292 328 686 165 519 b 224 109 165 219 186 158 z m 198 299 b 595 656 198 509 357 656 b 834 574 698 656 781 628 l 251 130 b 198 299 217 174 198 231 z m 271 108 l 854 551 b 906 378 888 508 906 449 b 510 22 906 168 757 22 b 271 108 412 22 327 51 z m 568 796 l 588 773 l 799 950 l 777 976 z "},"þ":{"ha":933,"x_min":0,"x_max":0,"o":"m 322 982 l 106 -274 l 135 -274 l 197 85 b 500 -8 238 59 347 -8 b 887 393 746 -8 887 159 b 597 685 887 574 783 685 b 282 574 441 685 326 607 l 352 982 z m 203 118 l 274 531 b 592 652 328 574 447 652 b 854 383 755 652 854 562 b 502 22 854 146 672 22 b 203 118 400 22 292 63 z "},"đ":{"ha":935,"x_min":0,"x_max":0,"o":"m 733 837 l 729 808 l 894 808 l 855 581 b 556 685 791 627 692 685 b 165 274 323 685 165 531 b 447 -8 165 85 265 -8 b 774 106 613 -8 747 89 l 759 0 l 785 0 l 924 808 l 1073 808 l 1077 837 l 929 837 l 954 982 l 924 982 l 899 837 z m 197 272 b 558 655 197 509 331 655 b 849 546 664 655 763 613 l 780 146 b 451 22 723 101 587 22 b 197 272 289 22 197 103 z "},"ħ":{"ha":949,"x_min":0,"x_max":0,"o":"m 213 849 l 208 821 l 297 821 l 155 0 l 185 0 l 278 541 b 651 656 336 581 513 656 b 859 494 778 656 859 624 b 851 417 859 472 856 446 l 779 0 l 809 0 l 885 438 b 891 505 889 463 891 485 b 656 686 891 632 810 686 b 284 575 502 686 335 608 l 326 821 l 559 821 l 564 849 l 331 849 l 354 982 l 324 982 l 301 849 z "},"ı":{"ha":336,"x_min":0,"x_max":0,"o":"m 270 674 l 153 0 l 183 0 l 300 674 z "},"ĳ":{"ha":784,"x_min":0,"x_max":0,"o":"m 272 674 l 155 0 l 185 0 l 301 674 z m 292 790 l 322 790 l 335 874 l 306 874 z m 372 -258 l 385 -287 b 626 -16 513 -218 605 -141 l 746 674 l 716 674 l 599 1 b 372 -258 581 -108 500 -187 z m 736 790 l 766 790 l 780 874 l 750 874 z "},"ĸ":{"ha":864,"x_min":0,"x_max":0,"o":"m 545 395 l 787 -8 l 813 8 l 568 414 l 890 647 l 874 672 l 215 193 l 298 674 l 269 674 l 152 0 l 182 0 l 208 153 z "},"ŀ":{"ha":340,"x_min":0,"x_max":0,"o":"m 324 982 l 155 0 l 185 0 l 354 982 z m 397 435 l 428 435 l 451 562 l 419 562 z "},"ł":{"ha":378,"x_min":0,"x_max":0,"o":"m 100 389 l 110 360 l 244 415 l 172 0 l 202 0 l 276 428 l 456 503 l 445 533 l 283 465 l 372 982 l 342 982 l 250 452 z "},"ŉ":{"ha":949,"x_min":0,"x_max":0,"o":"m 103 720 l 178 837 l 203 976 l 171 976 l 149 851 l 78 738 z m 155 0 l 185 0 l 278 541 b 651 656 336 581 513 656 b 859 494 778 656 859 624 b 851 417 859 472 856 446 l 779 0 l 809 0 l 885 438 b 891 505 889 463 891 485 b 656 686 891 632 810 686 b 284 575 502 686 335 608 l 297 674 l 272 674 z "},"ŋ":{"ha":947,"x_min":0,"x_max":0,"o":"m 849 417 l 777 1 b 550 -258 758 -108 678 -187 l 563 -287 b 804 -16 690 -218 783 -141 l 883 438 b 889 507 887 463 889 486 b 653 686 889 625 821 686 b 282 575 465 686 302 590 l 295 674 l 269 674 l 153 0 l 183 0 l 276 541 b 649 656 306 559 474 656 b 856 490 776 656 856 623 b 849 417 856 468 853 444 z "},"œ":{"ha":1579,"x_min":0,"x_max":0,"o":"m 476 -8 b 842 235 663 -8 792 88 b 1142 -8 860 72 969 -8 b 1438 89 1252 -8 1334 22 l 1422 118 b 1146 22 1311 45 1235 22 b 867 319 906 22 864 182 l 1493 319 b 1507 412 1499 340 1507 374 b 1235 687 1507 606 1382 687 b 861 437 1069 687 916 596 b 557 686 842 581 734 686 b 164 292 314 686 164 515 b 476 -8 164 108 290 -8 z m 197 299 b 559 656 197 504 338 656 b 836 378 730 656 836 537 b 474 22 836 169 690 22 b 197 299 304 22 197 137 z m 870 347 b 1233 656 900 551 1061 656 b 1474 421 1380 656 1474 567 b 1467 347 1474 393 1473 366 z "},"ŧ":{"ha":672,"x_min":0,"x_max":0,"o":"m 151 381 l 147 352 l 273 352 l 239 158 b 235 117 236 143 235 130 b 395 -8 235 28 297 -8 b 596 22 486 -8 556 10 l 589 50 b 397 20 549 37 475 20 b 265 124 317 20 265 49 b 269 158 265 134 267 145 l 303 352 l 660 352 l 664 381 l 308 381 l 353 646 l 690 646 l 694 674 l 358 674 l 390 856 l 360 856 l 328 674 l 181 674 l 176 646 l 324 646 l 278 381 z "},"ſ":{"ha":567,"x_min":0,"x_max":0,"o":"m 329 646 l 217 0 l 247 0 l 385 794 b 654 956 409 937 510 956 b 813 942 735 956 774 951 l 820 969 b 662 985 790 975 743 985 b 358 810 472 985 381 948 l 334 674 l 201 674 l 197 646 z "},"ȷ":{"ha":351,"x_min":0,"x_max":0,"o":"m 182 1 b -45 -258 163 -108 83 -187 l -32 -287 b 209 -16 95 -218 188 -141 l 328 674 l 299 674 z "},"π":{"ha":1117,"x_min":0,"x_max":0,"o":"m 754 158 b 750 111 751 141 750 125 b 890 -8 750 29 797 -8 b 1049 24 960 -8 1011 10 l 1039 51 b 892 19 1002 37 955 19 b 780 116 825 19 780 43 b 784 158 780 128 781 142 l 869 647 l 1120 647 l 1125 674 l 193 674 l 188 647 l 406 647 l 294 0 l 324 0 l 435 647 l 839 647 z "},"¼":{"ha":1658,"x_min":0,"x_max":0,"o":"m 1429 84 l 1415 0 l 1441 0 l 1456 84 l 1557 84 l 1561 108 l 1460 108 l 1522 463 l 1481 463 l 1083 110 l 1078 84 z m 255 432 l 694 432 l 699 456 l 498 456 l 574 895 l 544 895 l 379 858 l 382 832 l 543 869 l 472 456 l 260 456 z m 640 6 l 662 -10 l 1287 882 l 1267 899 z m 1119 108 l 1490 437 l 1433 108 z "},"½":{"ha":1751,"x_min":0,"x_max":0,"o":"m 260 456 l 255 432 l 694 432 l 699 456 l 498 456 l 574 895 l 544 895 l 379 858 l 382 832 l 543 869 l 472 456 z m 640 6 l 662 -10 l 1287 882 l 1267 899 z m 1142 0 l 1617 0 l 1621 24 l 1172 24 l 1180 66 b 1351 196 1190 124 1227 165 l 1510 240 b 1669 367 1622 271 1669 294 b 1483 472 1669 438 1619 472 b 1255 431 1405 472 1328 456 l 1263 406 b 1483 447 1335 432 1410 447 b 1643 368 1592 447 1643 426 b 1505 263 1643 311 1606 291 l 1342 218 b 1153 66 1203 183 1165 134 z "},"¾":{"ha":1658,"x_min":0,"x_max":0,"o":"m 241 476 l 231 450 b 445 413 276 430 363 413 b 724 578 615 413 724 460 b 606 681 724 644 669 678 b 717 799 665 694 717 734 b 553 904 717 881 654 904 b 343 866 477 904 407 888 l 352 839 b 551 876 423 864 499 876 b 686 800 649 876 686 852 b 515 688 686 729 605 688 l 382 688 l 376 663 l 509 663 b 694 575 606 663 694 651 b 447 441 694 487 604 441 b 241 476 376 441 298 454 z m 640 6 l 662 -10 l 1287 882 l 1267 899 z m 1078 84 l 1429 84 l 1415 0 l 1441 0 l 1456 84 l 1557 84 l 1561 108 l 1460 108 l 1522 463 l 1481 463 l 1083 110 z m 1119 108 l 1490 437 l 1433 108 z "},"_":{"ha":1007,"x_min":0,"x_max":0,"o":"m 30 -88 l 25 -117 l 941 -117 l 946 -88 z "},"-":{"ha":613,"x_min":0,"x_max":0,"o":"m 110 376 l 106 348 l 628 348 l 633 376 z "},"–":{"ha":813,"x_min":0,"x_max":0,"o":"m 111 376 l 106 350 l 827 350 l 832 376 z "},"—":{"ha":1241,"x_min":0,"x_max":0,"o":"m 111 376 l 107 352 l 1256 352 l 1260 376 z "},"(":{"ha":381,"x_min":0,"x_max":0,"o":"m 301 -75 l 328 -59 b 228 329 282 35 228 163 b 488 939 228 597 338 797 l 467 962 b 196 330 301 796 196 610 b 301 -75 196 162 244 34 z "},")":{"ha":384,"x_min":0,"x_max":0,"o":"m 315 524 b 52 -47 315 279 201 102 l 74 -69 b 347 523 236 90 347 260 b 238 960 347 704 299 844 l 210 943 b 315 524 257 844 315 703 z "},"[":{"ha":458,"x_min":0,"x_max":0,"o":"m 336 966 l 159 -49 l 363 -49 l 368 -21 l 196 -21 l 361 938 l 535 938 l 540 966 z "},"]":{"ha":458,"x_min":0,"x_max":0,"o":"m 280 -49 l 457 965 l 253 965 l 248 938 l 420 938 l 255 -22 l 81 -22 l 76 -49 z "},"{":{"ha":510,"x_min":0,"x_max":0,"o":"m 410 -68 l 415 -42 b 253 19 288 -39 253 -31 b 257 54 253 29 255 41 l 305 331 b 308 366 307 344 308 356 b 224 457 308 420 278 443 b 344 552 293 472 333 490 l 388 804 b 584 931 410 930 474 931 l 588 958 b 359 825 474 958 381 955 l 315 570 b 196 477 307 522 290 494 l 188 440 b 275 362 250 424 275 410 b 269 313 275 349 273 333 l 226 66 b 220 12 223 45 220 27 b 410 -68 220 -52 262 -66 z "},"}":{"ha":510,"x_min":0,"x_max":0,"o":"m 76 -40 l 72 -68 b 301 65 186 -68 279 -65 l 349 342 b 469 435 358 391 375 418 l 477 472 b 390 551 415 489 390 502 b 395 599 390 564 392 580 l 434 824 b 440 878 438 845 440 863 b 250 958 440 942 399 956 l 246 932 b 407 871 372 929 407 922 b 403 836 407 860 406 849 l 360 581 b 356 547 358 569 356 557 b 441 456 356 492 387 469 b 321 360 372 441 332 422 l 273 86 b 76 -40 251 -40 186 -40 z "},"#":{"ha":992,"x_min":0,"x_max":0,"o":"m 203 3 l 228 -6 l 333 259 l 675 259 l 574 3 l 599 -6 l 703 259 l 933 259 l 938 285 l 714 285 l 841 607 l 1054 607 l 1059 633 l 851 633 l 953 893 l 928 901 l 823 633 l 481 633 l 583 893 l 557 901 l 452 633 l 224 633 l 219 607 l 442 607 l 315 285 l 106 285 l 101 259 l 304 259 z m 343 285 l 470 607 l 813 607 l 685 285 z "},"%":{"ha":885,"x_min":0,"x_max":0,"o":"m 396 904 b 183 698 309 904 183 849 b 353 536 183 597 249 536 b 569 735 456 536 569 595 b 396 904 569 847 501 904 z m 72 14 l 94 -8 l 964 883 l 943 904 z m 216 703 b 394 876 216 813 300 876 b 537 735 482 876 537 834 b 354 564 537 618 446 564 b 216 703 280 564 216 603 z m 469 154 b 639 -8 469 53 535 -8 b 856 192 742 -8 856 51 b 682 360 856 303 788 360 b 469 154 595 360 469 306 z m 502 159 b 680 333 502 269 586 333 b 823 192 768 333 823 290 b 640 20 823 74 732 20 b 502 159 566 20 502 60 z "},"‰":{"ha":1356,"x_min":0,"x_max":0,"o":"m 396 904 b 183 698 309 904 183 849 b 353 536 183 597 249 536 b 569 735 456 536 569 595 b 396 904 569 847 501 904 z m 72 14 l 94 -8 l 964 883 l 943 904 z m 216 703 b 394 876 216 813 300 876 b 537 735 482 876 537 834 b 354 564 537 618 446 564 b 216 703 280 564 216 603 z m 469 154 b 639 -8 469 53 535 -8 b 856 192 742 -8 856 51 b 682 360 856 303 788 360 b 469 154 595 360 469 306 z m 502 159 b 680 333 502 269 586 333 b 823 192 768 333 823 290 b 640 20 823 74 732 20 b 502 159 566 20 502 60 z m 940 154 b 1110 -8 940 53 1006 -8 b 1326 192 1213 -8 1326 51 b 1153 360 1326 303 1258 360 b 940 154 1066 360 940 306 z m 973 159 b 1151 333 973 269 1057 333 b 1294 192 1239 333 1294 290 b 1111 20 1294 74 1203 20 b 973 159 1037 20 973 60 z "},"'":{"ha":224,"x_min":0,"x_max":0,"o":"m 250 895 l 201 604 l 228 604 l 283 895 z "},"\"":{"ha":351,"x_min":0,"x_max":0,"o":"m 377 895 l 328 604 l 356 604 l 410 895 z m 201 604 l 228 604 l 283 895 l 250 895 z "},"‘":{"ha":286,"x_min":0,"x_max":0,"o":"m 370 889 l 346 906 l 251 769 l 226 624 l 256 624 l 280 757 z "},"’":{"ha":286,"x_min":0,"x_max":0,"o":"m 200 630 l 224 613 l 319 750 l 344 895 l 314 895 l 290 762 z "},"“":{"ha":395,"x_min":0,"x_max":0,"o":"m 478 887 l 454 903 l 359 767 l 334 622 l 365 622 l 388 755 z m 226 622 l 256 622 l 280 755 l 370 887 l 346 903 l 251 767 z "},"”":{"ha":395,"x_min":0,"x_max":0,"o":"m 194 630 l 219 613 l 314 750 l 339 895 l 308 895 l 285 762 z m 303 630 l 327 613 l 422 750 l 447 895 l 417 895 l 393 762 z "},"‚":{"ha":267,"x_min":0,"x_max":0,"o":"m 47 -146 l 72 -162 l 167 -26 l 192 119 l 161 119 l 138 -14 z "},"„":{"ha":376,"x_min":0,"x_max":0,"o":"m 47 -146 l 72 -162 l 167 -26 l 192 119 l 161 119 l 138 -14 z m 156 -146 l 180 -162 l 275 -26 l 300 119 l 269 119 l 246 -14 z "},"‹":{"ha":410,"x_min":0,"x_max":0,"o":"m 119 339 l 341 -8 l 369 11 l 160 336 l 471 663 l 447 685 z "},"›":{"ha":410,"x_min":0,"x_max":0,"o":"m 427 340 l 205 686 l 176 667 l 386 342 l 75 16 l 99 -7 z "},"«":{"ha":631,"x_min":0,"x_max":0,"o":"m 119 339 l 340 -8 l 370 13 l 163 335 l 472 659 l 447 685 z m 328 339 l 558 -8 l 588 13 l 373 335 l 689 659 l 664 685 z "},"»":{"ha":631,"x_min":0,"x_max":0,"o":"m 647 339 l 425 685 l 395 665 l 602 342 l 294 19 l 319 -8 z m 76 19 l 101 -8 l 437 339 l 208 685 l 178 665 l 392 342 z "},"*":{"ha":395,"x_min":0,"x_max":0,"o":"m 299 678 l 274 539 l 306 539 l 330 679 l 439 609 l 457 635 l 348 705 l 483 776 l 473 802 l 339 732 l 363 873 l 332 873 l 308 731 l 197 802 l 179 776 l 289 706 l 155 635 l 165 609 z "},"†":{"ha":488,"x_min":0,"x_max":0,"o":"m 333 618 l 215 -82 l 244 -82 l 366 618 l 519 618 l 524 643 l 371 643 l 418 917 l 385 917 l 338 643 l 188 643 l 183 618 z "},"‡":{"ha":488,"x_min":0,"x_max":0,"o":"m 285 333 l 215 -82 l 243 -82 l 316 333 l 469 333 l 474 358 l 320 358 l 365 618 l 519 618 l 523 643 l 370 643 l 417 917 l 385 917 l 338 643 l 187 643 l 183 618 l 333 618 l 289 358 l 138 358 l 133 333 z "},".":{"ha":218,"x_min":0,"x_max":0,"o":"m 115 127 l 93 0 l 125 0 l 147 127 z "},",":{"ha":288,"x_min":0,"x_max":0,"o":"m 83 -201 l 181 -47 l 211 127 l 179 127 l 151 -33 l 58 -183 z "},":":{"ha":218,"x_min":0,"x_max":0,"o":"m 210 674 l 188 547 l 219 547 l 242 674 z m 93 0 l 125 0 l 147 127 l 115 127 z "},";":{"ha":287,"x_min":0,"x_max":0,"o":"m 273 674 l 251 547 l 283 547 l 305 674 z m 58 -183 l 83 -201 l 180 -47 l 210 127 l 178 127 l 151 -33 z "},"…":{"ha":556,"x_min":0,"x_max":0,"o":"m 452 127 l 430 0 l 462 0 l 484 127 z m 93 0 l 125 0 l 147 127 l 115 127 z m 254 0 l 286 0 l 308 127 l 276 127 z "},"!":{"ha":398,"x_min":0,"x_max":0,"o":"m 283 581 l 222 213 l 250 213 l 317 578 l 372 895 l 337 895 z m 181 0 l 217 0 l 233 89 l 196 89 z "},"¡":{"ha":398,"x_min":0,"x_max":0,"o":"m 249 191 l 309 559 l 281 559 l 215 194 l 160 -123 l 194 -123 z m 299 683 l 335 683 l 351 772 l 314 772 z "},"?":{"ha":691,"x_min":0,"x_max":0,"o":"m 283 89 l 268 0 l 305 0 l 320 89 z m 181 846 l 190 817 b 508 875 306 856 406 875 b 719 724 639 875 719 836 b 510 503 719 647 674 588 b 315 283 382 437 333 389 l 302 213 l 337 213 l 351 288 b 521 471 367 375 418 418 b 754 735 693 559 754 616 b 512 905 754 847 672 905 b 181 846 390 905 283 881 z "},"¿":{"ha":690,"x_min":0,"x_max":0,"o":"m 558 683 l 574 772 l 537 772 l 522 683 z m 88 38 b 330 -133 88 -75 170 -133 b 660 -74 452 -133 559 -108 l 651 -44 b 334 -103 536 -83 435 -103 b 122 48 203 -103 122 -64 b 331 269 122 125 168 185 b 527 489 460 335 508 383 l 540 560 l 505 560 l 491 485 b 321 301 475 397 424 354 b 88 38 149 213 88 156 z "},"/":{"ha":496,"x_min":0,"x_max":0,"o":"m -12 -201 l 18 -213 l 655 1051 l 625 1065 z "},"\\":{"ha":503,"x_min":0,"x_max":0,"o":"m 205 1058 l 412 -213 l 444 -207 l 237 1065 z "},"⁄":{"ha":192,"x_min":0,"x_max":0,"o":"m -150 6 l -128 -10 l 497 882 l 476 899 z "},"|":{"ha":399,"x_min":0,"x_max":0,"o":"m 364 1059 l 130 -297 l 167 -297 l 401 1059 z "},"¦":{"ha":399,"x_min":0,"x_max":0,"o":"m 231 290 l 130 -297 l 167 -297 l 268 290 z m 265 488 l 302 488 l 401 1059 l 364 1059 z "},"@":{"ha":1489,"x_min":0,"x_max":0,"o":"m 694 -166 b 1081 -94 890 -166 1008 -126 l 1069 -70 b 700 -140 994 -103 883 -140 b 250 292 444 -140 250 -24 b 908 878 250 636 555 878 b 1369 472 1196 878 1369 761 b 1162 94 1369 209 1251 94 b 1080 168 1112 94 1080 112 b 1084 207 1080 180 1081 192 l 1106 328 b 1119 455 1114 376 1119 418 b 877 675 1119 619 1034 675 b 618 621 776 675 671 642 l 628 594 b 880 649 674 614 776 649 b 1090 410 1051 649 1099 576 b 920 428 1056 418 989 428 b 491 206 649 428 491 345 b 666 69 491 113 556 69 b 1053 210 820 69 961 137 b 1158 68 1038 137 1055 68 b 1400 480 1280 68 1400 214 b 911 905 1400 770 1218 905 b 219 286 583 905 219 693 b 694 -166 219 -39 428 -166 z m 524 211 b 917 402 524 324 653 402 b 1087 385 1001 402 1047 392 l 1063 251 b 669 94 962 159 806 94 b 524 211 574 94 524 133 z "},"&":{"ha":1094,"x_min":0,"x_max":0,"o":"m 449 -8 b 832 131 613 -8 728 31 b 996 -8 881 90 936 43 l 1017 19 b 851 158 956 70 901 116 b 958 459 908 246 940 317 l 928 459 b 827 181 911 330 883 261 b 399 685 467 481 399 565 b 629 863 399 823 523 863 b 843 822 707 863 766 850 l 854 853 b 637 894 803 873 735 894 b 364 683 492 894 364 835 b 463 467 364 602 395 541 b 190 190 292 398 190 324 b 449 -8 190 38 313 -8 z m 225 188 b 483 442 225 313 315 377 b 808 153 551 372 654 283 b 456 23 713 57 586 23 b 225 188 317 23 225 76 z "},"§":{"ha":928,"x_min":0,"x_max":0,"o":"m 459 -171 b 792 41 658 -171 792 -96 b 714 185 792 113 762 158 b 884 375 805 220 884 277 b 340 694 884 702 340 440 b 619 867 340 798 453 867 b 868 817 721 867 794 845 l 880 842 b 625 892 816 867 726 892 b 310 695 443 892 310 817 b 408 559 310 614 351 579 b 219 357 306 527 219 469 b 765 35 219 63 765 335 b 458 -145 765 -76 635 -145 b 145 -62 312 -145 208 -103 l 130 -87 b 459 -171 192 -128 306 -171 z m 249 356 b 452 547 251 469 343 519 b 856 375 615 519 856 572 b 681 200 856 304 792 233 b 249 356 521 255 249 176 z "},"¶":{"ha":862,"x_min":0,"x_max":0,"o":"m 475 378 l 617 378 l 529 -127 l 560 -127 l 732 865 l 556 865 b 194 581 331 865 194 750 b 475 378 194 433 301 378 z m 627 -127 l 657 -127 l 828 865 l 799 865 z "},"·":{"ha":219,"x_min":0,"x_max":0,"o":"m 199 567 l 177 440 l 209 440 l 231 567 z "},"•":{"ha":301,"x_min":0,"x_max":0,"o":"m 178 503 l 153 354 l 271 354 l 297 503 z "},"+":{"ha":790,"x_min":0,"x_max":0,"o":"m 447 400 l 398 121 l 431 121 l 481 400 l 783 400 l 788 431 l 486 431 l 529 678 l 496 678 l 453 431 l 150 431 l 144 400 z "},"−":{"ha":839,"x_min":0,"x_max":0,"o":"m 150 431 l 145 401 l 831 401 l 836 431 z "},"±":{"ha":791,"x_min":0,"x_max":0,"o":"m 467 516 l 419 242 l 452 242 l 501 516 l 803 516 l 808 547 l 506 547 l 550 799 l 517 799 l 472 547 l 170 547 l 165 516 z m 90 83 l 728 83 l 733 113 l 95 113 z "},"÷":{"ha":838,"x_min":0,"x_max":0,"o":"m 435 236 l 423 167 l 456 167 l 468 236 z m 144 398 l 831 398 l 836 428 l 150 428 z m 494 580 l 528 580 l 540 649 l 506 649 z "},"×":{"ha":692,"x_min":0,"x_max":0,"o":"m 110 142 l 131 118 l 415 361 l 627 118 l 651 140 l 441 381 l 713 609 l 693 632 l 421 403 l 220 632 l 197 611 l 396 384 z "},"=":{"ha":790,"x_min":0,"x_max":0,"o":"m 133 328 l 127 298 l 765 298 l 771 328 z m 162 497 l 799 497 l 804 527 l 167 527 z "},"<":{"ha":890,"x_min":0,"x_max":0,"o":"m 194 378 l 773 78 l 789 108 l 224 399 l 891 665 l 880 696 l 202 422 z "},">":{"ha":885,"x_min":0,"x_max":0,"o":"m 842 400 l 263 701 l 247 670 l 812 380 l 145 114 l 156 83 l 834 357 z "},"≤":{"ha":925,"x_min":0,"x_max":0,"o":"m 215 495 l 827 230 l 841 260 l 247 515 l 931 740 l 920 772 l 222 538 z m 129 1 l 815 1 l 821 31 l 135 31 z "},"≥":{"ha":930,"x_min":0,"x_max":0,"o":"m 188 262 l 198 230 l 896 463 l 903 506 l 291 772 l 277 741 l 872 487 z m 130 1 l 816 1 l 822 31 l 135 31 z "},"≈":{"ha":751,"x_min":0,"x_max":0,"o":"m 456 300 b 585 263 496 282 535 263 b 730 312 643 263 686 280 l 713 336 b 585 294 675 309 636 294 b 470 328 541 294 508 311 b 328 365 431 347 387 365 b 130 297 252 365 179 327 l 144 270 b 328 334 190 298 258 334 b 456 300 381 334 419 317 z m 167 526 l 181 500 b 365 564 228 528 295 564 b 493 530 419 564 456 547 b 623 493 533 512 573 493 b 767 542 681 493 724 510 l 751 566 b 623 524 713 539 674 524 b 508 558 578 524 545 541 b 365 594 468 576 424 594 b 167 526 290 594 217 557 z "},"≠":{"ha":790,"x_min":0,"x_max":0,"o":"m 303 139 l 333 127 l 420 298 l 765 298 l 771 328 l 435 328 l 522 497 l 799 497 l 804 527 l 538 527 l 626 701 l 598 714 l 502 527 l 167 527 l 162 497 l 486 497 l 400 328 l 133 328 l 127 298 l 385 298 z "},"¬":{"ha":828,"x_min":0,"x_max":0,"o":"m 781 356 l 755 206 l 788 206 l 819 387 l 144 387 l 138 356 z "},"←":{"ha":1128,"x_min":0,"x_max":0,"o":"m 210 441 l 433 187 l 457 207 l 249 440 l 1108 440 l 1112 468 l 255 468 l 542 701 l 521 724 l 214 467 z "},"↑":{"ha":759,"x_min":0,"x_max":0,"o":"m 511 851 l 364 0 l 394 0 l 541 851 l 729 608 l 753 626 l 545 897 l 522 897 l 224 635 l 243 613 z "},"→":{"ha":1128,"x_min":0,"x_max":0,"o":"m 743 208 l 764 185 l 1071 442 l 1075 467 l 852 722 l 828 701 l 1035 468 l 176 468 l 172 440 l 1030 440 z "},"↓":{"ha":759,"x_min":0,"x_max":0,"o":"m 161 270 l 369 0 l 392 0 l 690 261 l 671 283 l 403 45 l 550 897 l 520 897 l 373 46 l 185 288 z "},"∂":{"ha":1047,"x_min":0,"x_max":0,"o":"m 504 -8 b 997 528 770 -8 997 153 b 649 904 997 757 889 904 b 331 827 538 904 431 875 l 344 799 b 651 873 444 846 544 873 b 963 517 854 873 963 751 b 957 423 963 488 960 456 b 601 544 871 489 763 544 b 206 237 465 544 206 482 b 504 -8 206 67 346 -8 z m 241 242 b 600 513 241 444 451 513 b 951 389 763 513 863 460 b 503 24 894 114 699 24 b 241 242 344 24 241 102 z "},"∆":{"ha":1015,"x_min":0,"x_max":0,"o":"m 57 0 l 958 0 l 696 982 l 656 982 z m 115 31 l 672 950 l 915 31 z "},"∏":{"ha":1058,"x_min":0,"x_max":0,"o":"m 338 895 l 156 -156 l 190 -156 l 366 865 l 992 865 l 815 -156 l 849 -156 l 1031 895 z "},"∑":{"ha":987,"x_min":0,"x_max":0,"o":"m 108 -112 l 101 -156 l 856 -156 l 861 -126 l 140 -126 l 702 369 l 308 865 l 1022 865 l 1028 895 l 279 895 l 272 858 l 660 372 z "},"µ":{"ha":990,"x_min":0,"x_max":0,"o":"m 285 674 l 121 -274 l 151 -274 l 208 58 b 215 108 210 71 213 90 b 443 -8 239 21 326 -8 b 810 101 627 -8 781 81 l 797 0 l 822 0 l 939 674 l 909 674 l 815 131 b 444 20 788 115 623 20 b 236 181 306 20 236 54 b 244 268 236 206 239 235 l 315 674 z "},"∕":{"ha":450,"x_min":0,"x_max":0,"o":"m -13 -201 l 17 -213 l 654 1051 l 624 1065 z "},"√":{"ha":873,"x_min":0,"x_max":0,"o":"m 248 494 l 381 0 l 414 0 l 1013 978 l 988 995 l 401 41 l 275 527 l 135 527 l 130 494 z "},"∞":{"ha":1297,"x_min":0,"x_max":0,"o":"m 1208 369 b 974 133 1208 226 1113 133 b 782 249 889 133 829 180 l 724 333 l 836 445 b 1047 545 915 524 987 545 b 1208 369 1149 545 1208 486 z m 172 309 b 368 102 172 180 251 102 b 615 222 460 102 537 144 l 699 308 l 756 225 b 977 102 819 133 895 102 b 1242 376 1135 102 1242 206 b 1047 576 1242 508 1171 576 b 822 476 967 576 890 544 l 706 360 l 630 472 b 439 578 579 547 522 578 b 172 309 288 578 172 475 z m 207 310 b 435 547 207 458 303 547 b 601 450 511 547 553 520 l 681 335 l 594 248 b 369 133 531 185 460 133 b 207 310 272 133 207 199 z "},"∫":{"ha":722,"x_min":0,"x_max":0,"o":"m -36 -212 l -45 -241 b 103 -261 -3 -252 42 -261 b 364 -80 233 -261 339 -225 l 513 781 b 738 938 531 890 597 938 b 880 920 806 938 837 931 l 889 949 b 741 969 847 960 801 969 b 480 788 611 969 505 933 l 331 -73 b 106 -230 313 -183 247 -230 b -36 -212 38 -230 7 -223 z "},"$":{"ha":858,"x_min":0,"x_max":0,"o":"m 348 67 l 326 -58 l 354 -58 l 376 64 b 465 60 403 61 433 60 b 503 61 478 60 491 60 l 483 -58 l 511 -58 l 533 63 b 799 296 683 81 799 156 b 603 471 799 425 709 459 l 657 783 b 792 744 710 774 753 760 l 803 770 b 661 808 769 783 719 799 l 687 957 l 658 957 l 633 811 b 553 816 608 814 581 816 b 506 814 539 816 523 815 l 531 957 l 501 957 l 476 811 b 231 606 368 797 231 749 b 415 454 231 492 314 464 l 352 94 b 151 160 270 106 202 131 l 138 135 b 348 67 181 110 250 81 z m 262 606 b 472 784 262 714 358 767 l 419 483 b 262 606 331 492 262 517 z m 380 90 l 442 451 b 507 448 463 450 485 449 b 570 444 528 447 549 446 l 508 87 b 465 85 494 86 480 85 b 380 90 435 85 407 87 z m 448 481 l 501 788 b 557 790 519 790 538 790 b 629 786 583 790 607 789 l 575 474 b 512 477 554 475 533 476 b 448 481 490 478 469 479 z m 537 90 l 598 442 b 771 291 693 431 770 400 b 537 90 771 197 691 110 z "},"¢":{"ha":820,"x_min":0,"x_max":0,"o":"m 167 315 b 348 58 167 183 228 94 l 328 -58 l 356 -58 l 375 50 b 488 39 408 43 446 39 b 515 40 497 39 506 39 l 499 -58 l 527 -58 l 544 41 b 760 97 626 48 689 69 l 749 122 b 549 69 697 103 630 78 l 652 664 b 802 626 697 659 747 648 l 814 653 b 656 691 778 666 731 683 l 677 809 l 649 809 l 628 693 b 581 694 614 694 598 694 b 485 685 548 694 516 692 l 506 809 l 478 809 l 455 679 b 167 315 290 638 167 511 z m 200 316 b 450 649 200 483 304 605 l 353 87 b 200 316 256 121 200 197 z m 380 78 l 480 657 b 580 668 512 665 545 668 b 624 667 594 668 608 667 l 520 67 b 492 66 511 66 501 66 b 380 78 451 66 413 70 z "},"£":{"ha":841,"x_min":0,"x_max":0,"o":"m 159 42 l 153 0 l 760 0 l 766 31 l 190 31 l 329 440 l 777 440 l 782 471 l 340 471 l 415 694 b 682 873 465 844 578 873 b 908 842 772 873 847 858 l 917 872 b 685 904 853 889 773 904 b 388 708 583 904 445 877 l 306 471 l 172 471 l 167 440 l 296 440 z "},"¤":{"ha":818,"x_min":0,"x_max":0,"o":"m 176 151 l 288 239 b 454 189 324 208 378 189 b 626 238 524 189 581 207 l 694 151 l 717 169 l 649 257 b 733 454 703 306 733 376 b 688 576 733 499 718 542 l 796 663 l 778 685 l 668 597 b 515 647 632 628 581 647 b 355 606 460 647 403 635 l 287 694 l 263 676 l 331 590 b 230 385 267 540 231 466 b 267 260 230 338 238 297 l 159 173 z m 260 382 b 511 621 260 520 360 621 b 702 450 638 621 702 537 b 458 215 702 322 613 215 b 260 382 316 215 260 291 z "},"¥":{"ha":1042,"x_min":0,"x_max":0,"o":"m 334 384 l 328 353 l 494 353 l 551 254 l 313 254 l 308 224 l 556 224 l 517 0 l 550 0 l 590 224 l 864 224 l 869 254 l 608 254 l 696 355 l 695 353 l 886 353 l 892 384 l 722 384 l 1158 882 l 1135 903 l 581 272 l 215 903 l 188 886 l 476 384 z "},"€":{"ha":1010,"x_min":0,"x_max":0,"o":"m 609 -8 b 932 78 724 -8 824 19 l 917 107 b 610 24 838 65 748 24 b 283 351 431 24 288 140 l 683 351 l 688 382 l 283 382 b 296 505 283 426 288 467 l 717 505 l 722 535 l 303 535 b 756 873 361 760 540 873 b 1029 807 849 873 930 857 l 1044 838 b 756 904 940 885 863 904 b 267 535 556 904 332 807 l 168 535 l 163 505 l 260 505 b 248 382 253 467 249 426 l 134 382 l 128 351 l 248 351 b 609 -8 253 115 407 -8 z "},"ƒ":{"ha":774,"x_min":0,"x_max":0,"o":"m -151 -236 l -160 -266 b 8 -290 -122 -278 -61 -290 b 298 -94 188 -290 267 -212 l 431 415 l 779 415 l 784 442 l 438 442 l 498 673 b 754 837 534 811 610 837 b 918 822 822 837 865 831 l 925 850 b 758 865 866 860 824 865 b 469 683 608 865 508 838 l 405 442 l 189 442 l 184 415 l 398 415 l 263 -92 b 14 -262 231 -204 153 -262 b -151 -236 -53 -262 -104 -252 z "},"₱":{"ha":1123,"x_min":0,"x_max":0,"o":"m 229 0 l 263 0 l 311 282 l 675 282 b 1053 474 867 282 1001 336 l 1182 474 l 1188 505 l 1063 505 b 1075 664 1076 556 1080 615 l 1215 664 l 1220 694 l 1070 694 b 780 895 1043 817 942 895 l 384 895 l 349 694 l 219 694 l 213 664 l 344 664 l 317 505 l 186 505 l 181 474 l 311 474 z m 317 313 l 344 474 l 1016 474 b 683 313 975 383 880 313 z m 350 505 l 377 664 l 1040 664 b 1028 505 1048 613 1044 557 z m 383 694 l 412 865 l 775 865 b 1033 694 928 865 1008 793 z "},"^":{"ha":659,"x_min":0,"x_max":0,"o":"m 146 514 l 173 493 l 486 868 l 660 497 l 690 510 l 511 895 l 467 895 z "},"~":{"ha":685,"x_min":0,"x_max":0,"o":"m 299 399 b 398 357 347 399 369 377 b 527 310 449 322 478 310 b 681 396 599 310 651 351 l 660 415 b 527 341 614 358 579 341 b 414 388 488 341 456 356 b 299 429 388 408 359 429 b 134 353 240 429 181 397 l 153 331 b 299 399 199 368 249 399 z "},"´":{"ha":512,"x_min":0,"x_max":0,"o":"m 293 1038 l 306 1009 l 594 1138 l 579 1171 z "},"`":{"ha":480,"x_min":0,"x_max":0,"o":"m 311 1142 l 525 1008 l 542 1033 l 334 1174 z "},"˝":{"ha":710,"x_min":0,"x_max":0,"o":"m 373 1031 l 392 1009 l 633 1213 l 608 1239 z m 614 1033 l 633 1009 l 883 1197 l 862 1226 z "},"ˆ":{"ha":592,"x_min":0,"x_max":0,"o":"m 281 1032 l 302 1009 l 501 1182 l 642 1009 l 665 1029 l 519 1206 l 486 1206 z "},"ˇ":{"ha":549,"x_min":0,"x_max":0,"o":"m 297 1191 l 443 1014 l 476 1014 l 678 1186 l 660 1210 l 460 1040 l 319 1211 z "},"˘":{"ha":584,"x_min":0,"x_max":0,"o":"m 348 1192 l 319 1192 b 317 1156 318 1179 317 1167 b 466 1009 317 1067 356 1009 b 674 1186 585 1009 642 1067 l 645 1192 b 467 1038 610 1077 554 1038 b 347 1163 390 1038 347 1067 b 348 1192 347 1172 347 1181 z "},"˜":{"ha":676,"x_min":0,"x_max":0,"o":"m 509 1055 b 618 1013 556 1022 583 1013 b 750 1101 667 1013 701 1033 l 726 1117 b 618 1042 688 1064 658 1042 b 528 1079 589 1042 567 1053 b 426 1123 475 1116 460 1123 b 294 1035 389 1123 345 1102 l 317 1018 b 426 1093 360 1072 395 1093 b 509 1055 454 1093 467 1084 z "},"¯":{"ha":582,"x_min":0,"x_max":0,"o":"m 297 1058 l 292 1028 l 645 1028 l 650 1058 z "},"¨":{"ha":435,"x_min":0,"x_max":0,"o":"m 306 1112 l 292 1028 l 324 1028 l 339 1112 z m 467 1028 l 499 1028 l 514 1112 l 481 1112 z "},"˙":{"ha":260,"x_min":0,"x_max":0,"o":"m 306 1112 l 292 1028 l 324 1028 l 339 1112 z "},"˚":{"ha":483,"x_min":0,"x_max":0,"o":"m 417 997 b 560 1115 499 997 560 1047 b 447 1214 560 1177 517 1214 b 306 1094 363 1214 306 1163 b 417 997 306 1033 347 997 z m 338 1097 b 443 1186 338 1147 383 1186 b 528 1111 499 1186 528 1160 b 420 1025 528 1063 479 1025 b 338 1097 365 1025 338 1049 z "},"¸":{"ha":488,"x_min":0,"x_max":0,"o":"m 90 -237 l 83 -264 b 177 -277 103 -271 138 -277 b 347 -135 278 -277 347 -228 b 243 13 347 -65 321 -12 l 216 1 b 315 -134 306 -30 315 -80 b 181 -251 315 -224 242 -251 b 90 -237 147 -251 111 -244 z "},"˛":{"ha":577,"x_min":0,"x_max":0,"o":"m 312 -4 l 287 8 b 131 -166 174 -39 131 -98 b 252 -278 131 -242 178 -278 b 347 -258 290 -278 319 -271 l 338 -235 b 257 -253 314 -246 288 -253 b 163 -167 196 -253 163 -223 b 312 -4 163 -104 195 -58 z "},"©":{"ha":1174,"x_min":0,"x_max":0,"o":"m 665 -6 b 1129 451 942 -6 1129 177 b 665 905 1129 722 941 905 b 200 449 388 905 200 721 b 665 -6 200 178 388 -6 z m 232 449 b 665 878 232 706 410 878 b 1097 451 920 878 1097 705 b 665 20 1097 192 918 20 b 232 449 410 20 232 193 z m 411 442 b 667 202 411 273 528 202 b 851 247 735 202 802 223 l 838 269 b 667 228 801 253 738 228 b 443 439 551 228 443 287 b 681 658 443 581 556 658 b 831 624 739 658 778 645 l 844 649 b 677 684 809 663 763 684 b 411 442 543 684 411 597 z "},"®":{"ha":722,"x_min":0,"x_max":0,"o":"m 503 606 l 388 606 l 388 718 l 500 718 b 569 663 549 718 569 697 b 503 606 569 627 550 606 z m 178 623 b 468 340 178 453 294 340 b 758 623 642 340 758 453 b 468 906 758 792 642 906 b 178 623 294 906 178 792 z m 207 623 b 468 880 207 777 311 880 b 730 623 625 880 730 777 b 468 366 730 469 625 366 b 207 623 311 366 207 469 z m 360 494 l 388 494 l 388 581 l 502 581 b 519 581 508 581 514 581 l 554 494 l 578 503 l 544 587 b 596 662 576 597 596 623 b 502 743 596 717 561 743 l 360 743 z "},"™":{"ha":1365,"x_min":0,"x_max":0,"o":"m 787 895 l 787 455 l 817 455 l 817 847 l 1035 474 l 1063 474 l 1285 847 l 1285 455 l 1315 455 l 1315 895 l 1280 895 l 1050 508 l 822 895 z m 193 869 l 426 869 l 426 455 l 456 455 l 456 869 l 679 869 l 679 896 l 193 896 z "},"°":{"ha":601,"x_min":0,"x_max":0,"o":"m 419 469 b 647 687 557 469 647 556 b 419 904 647 817 554 904 b 192 687 282 904 192 817 b 419 469 192 556 280 469 z m 225 687 b 419 875 225 786 294 875 b 613 687 546 875 613 786 b 419 499 613 587 546 499 b 225 687 294 499 225 587 z "},"◊":{"ha":842,"x_min":0,"x_max":0,"o":"m 202 443 l 399 0 l 435 0 l 791 439 l 594 895 l 549 895 z m 243 438 l 569 866 l 751 444 l 422 36 z "},"₹":{"ha":949,"x_min":0,"x_max":0,"o":"m 587 340 l 699 -7 l 731 4 l 618 348 b 850 606 740 382 833 465 l 959 606 l 964 637 l 852 637 b 706 865 860 708 837 817 l 1003 865 l 1008 895 l 347 895 l 341 865 l 513 865 b 819 637 695 865 819 819 l 301 637 l 297 606 l 817 606 b 472 360 797 449 665 360 l 253 360 l 249 329 l 473 329 b 587 340 513 329 551 333 z "},"ﬀ":{"ha":1195,"x_min":0,"x_max":0,"o":"m 317 646 l 205 0 l 235 0 l 347 646 l 893 646 l 781 0 l 810 0 l 923 646 l 1291 646 l 1295 674 l 927 674 l 950 804 b 1217 956 972 933 1099 956 b 1377 942 1274 956 1333 949 l 1383 969 b 1221 985 1344 976 1274 985 b 921 810 1103 985 947 964 l 897 674 l 351 674 l 372 790 b 639 942 394 918 520 942 b 799 927 696 942 755 934 l 804 955 b 642 970 766 961 695 970 b 342 795 525 970 369 949 l 322 674 l 188 674 l 184 646 z "},"ﬁ":{"ha":914,"x_min":0,"x_max":0,"o":"m 317 646 l 205 0 l 235 0 l 347 646 l 842 646 l 730 0 l 760 0 l 876 674 l 351 674 l 374 804 b 663 956 398 933 535 956 b 849 942 728 956 797 949 l 854 969 b 666 985 810 976 727 985 b 345 810 540 985 374 964 l 322 674 l 188 674 l 184 646 z "},"ﬂ":{"ha":983,"x_min":0,"x_max":0,"o":"m 317 646 l 205 0 l 235 0 l 347 646 l 690 646 l 694 674 l 351 674 l 374 804 b 628 956 395 933 516 956 b 776 942 680 956 736 949 l 781 969 b 631 985 746 976 680 985 b 345 810 519 985 370 964 l 322 674 l 188 674 l 184 646 z m 798 0 l 828 0 l 997 982 l 967 982 z "},"ﬃ":{"ha":1492,"x_min":0,"x_max":0,"o":"m 317 646 l 205 0 l 235 0 l 347 646 l 893 646 l 781 0 l 810 0 l 923 646 l 1421 646 l 1308 0 l 1338 0 l 1455 674 l 927 674 l 950 804 b 1242 956 974 933 1115 956 b 1428 942 1308 956 1376 949 l 1434 969 b 1246 985 1390 976 1307 985 b 921 810 1120 985 949 964 l 897 674 l 351 674 l 372 790 b 639 942 394 918 520 942 b 799 927 696 942 755 934 l 804 955 b 642 970 766 961 695 970 b 342 795 525 970 369 949 l 322 674 l 188 674 l 184 646 z "},"ﬄ":{"ha":1558,"x_min":0,"x_max":0,"o":"m 317 646 l 205 0 l 235 0 l 347 646 l 893 646 l 781 0 l 810 0 l 923 646 l 1270 646 l 1274 674 l 927 674 l 950 804 b 1210 956 972 933 1095 956 b 1356 942 1263 956 1317 949 l 1362 969 b 1214 985 1326 976 1262 985 b 921 810 1099 985 947 964 l 897 674 l 351 674 l 372 790 b 639 942 394 918 520 942 b 799 927 696 942 755 934 l 804 955 b 642 970 766 961 695 970 b 342 795 525 970 369 949 l 322 674 l 188 674 l 184 646 z m 1374 0 l 1403 0 l 1573 982 l 1543 982 z "},"₀":{"ha":764,"x_min":0,"x_max":0,"o":"m 342 -211 b 649 77 525 -211 649 -100 b 425 281 649 215 545 281 b 126 -5 288 281 126 185 b 342 -211 126 -148 228 -211 z m 156 -3 b 426 251 156 157 285 251 b 618 69 534 251 618 198 b 346 -183 618 -99 481 -183 b 156 -3 238 -183 156 -124 z "},"₁":{"ha":764,"x_min":0,"x_max":0,"o":"m 153 -167 l 147 -192 l 586 -192 l 592 -167 l 390 -167 l 467 272 l 436 272 l 272 234 l 274 208 l 435 245 l 364 -167 z "},"₂":{"ha":764,"x_min":0,"x_max":0,"o":"m 484 72 l 321 26 b 133 -126 182 -9 144 -58 l 121 -192 l 596 -192 l 600 -167 l 151 -167 l 159 -126 b 331 4 169 -68 206 -27 l 489 48 b 648 176 601 79 648 103 b 463 281 648 246 598 281 b 234 239 384 281 307 264 l 242 215 b 462 256 314 240 389 256 b 622 176 572 256 622 235 b 484 72 622 119 585 99 z "},"₃":{"ha":764,"x_min":0,"x_max":0,"o":"m 133 -147 l 124 -174 b 338 -211 169 -194 256 -211 b 616 -45 507 -211 616 -164 b 499 58 616 21 561 55 b 609 175 557 70 609 110 b 445 281 609 257 547 281 b 235 242 369 281 299 264 l 244 215 b 444 252 315 240 391 252 b 578 176 541 252 578 228 b 408 64 578 106 497 64 l 274 64 l 269 40 l 401 40 b 586 -49 499 40 586 27 b 340 -183 586 -137 497 -183 b 133 -147 268 -183 190 -169 z "},"₄":{"ha":764,"x_min":0,"x_max":0,"o":"m 502 -108 l 488 -192 l 514 -192 l 528 -108 l 630 -108 l 634 -83 l 533 -83 l 594 272 l 554 272 l 156 -82 l 151 -108 z m 192 -83 l 563 245 l 506 -83 z "},"₅":{"ha":764,"x_min":0,"x_max":0,"o":"m 158 -129 l 145 -155 b 379 -210 204 -187 290 -210 b 649 -39 515 -210 649 -156 b 456 95 649 63 569 95 b 244 44 374 95 296 69 l 297 247 l 628 247 l 633 272 l 279 272 l 215 31 l 238 14 b 455 67 307 44 372 67 b 619 -42 584 67 619 23 b 382 -182 619 -141 486 -182 b 158 -129 302 -182 226 -163 z "},"₆":{"ha":764,"x_min":0,"x_max":0,"o":"m 390 -212 b 639 -37 526 -212 639 -151 b 469 94 639 60 566 94 b 196 -19 366 94 274 58 b 195 -1 195 -13 195 -9 b 474 252 195 174 337 252 b 629 227 541 252 587 242 l 639 255 b 474 281 599 269 544 281 b 166 1 317 281 166 186 b 390 -212 166 -153 272 -212 z m 200 -51 b 468 66 276 23 361 66 b 609 -37 535 66 609 50 b 391 -183 609 -140 502 -183 b 200 -51 301 -183 220 -146 z "},"₇":{"ha":764,"x_min":0,"x_max":0,"o":"m 231 -194 l 253 -212 l 694 247 l 699 272 l 179 272 l 175 247 l 659 247 z "},"₈":{"ha":764,"x_min":0,"x_max":0,"o":"m 322 42 b 141 -101 223 24 141 -22 b 360 -211 141 -181 228 -211 b 626 -80 504 -211 626 -176 b 490 41 626 -1 557 26 b 639 169 569 56 639 94 b 447 281 639 242 558 281 b 216 149 328 281 216 238 b 322 42 216 83 270 59 z m 171 -97 b 404 26 171 -22 281 26 b 596 -81 512 26 596 -6 b 365 -183 596 -142 508 -183 b 171 -97 247 -183 171 -159 z m 246 151 b 444 255 246 214 326 255 b 610 168 549 255 610 224 b 407 53 610 94 506 53 b 246 151 333 53 246 86 z "},"₉":{"ha":764,"x_min":0,"x_max":0,"o":"m 337 -210 b 645 68 492 -210 645 -119 b 422 281 645 222 540 281 b 172 106 285 281 172 220 b 342 -26 172 7 245 -26 b 615 88 445 -26 538 10 b 616 69 616 82 616 76 b 338 -182 616 -106 474 -182 b 174 -156 267 -182 219 -172 l 165 -184 b 337 -210 206 -199 264 -210 z m 202 106 b 420 252 202 209 309 252 b 611 119 510 252 590 215 b 343 3 535 46 450 3 b 202 106 276 3 202 17 z "},"₍":{"ha":382,"x_min":0,"x_max":0,"o":"m 316 285 l 297 308 b 155 13 223 244 155 161 b 225 -238 155 -97 190 -176 l 250 -225 b 185 4 222 -174 185 -78 b 316 285 185 141 237 218 z "},"₎":{"ha":382,"x_min":0,"x_max":0,"o":"m 112 -215 l 131 -238 b 273 56 205 -175 273 -92 b 203 308 273 167 238 245 l 178 294 b 243 65 206 243 243 147 b 112 -215 243 -72 191 -149 z "},"¹":{"ha":764,"x_min":0,"x_max":0,"o":"m 278 556 l 272 531 l 711 531 l 717 556 l 515 556 l 592 994 l 561 994 l 397 957 l 399 931 l 560 968 l 489 556 z "},"²":{"ha":764,"x_min":0,"x_max":0,"o":"m 609 794 l 446 749 b 258 597 307 714 269 665 l 246 531 l 721 531 l 725 556 l 276 556 l 284 597 b 456 727 294 655 331 696 l 614 771 b 773 899 726 802 773 826 b 588 1003 773 969 723 1003 b 359 962 509 1003 432 987 l 367 938 b 587 978 439 963 514 978 b 747 899 697 978 747 958 b 609 794 747 842 710 822 z "},"³":{"ha":764,"x_min":0,"x_max":0,"o":"m 258 576 l 249 549 b 463 512 294 529 381 512 b 741 678 632 512 741 559 b 624 781 741 744 686 778 b 734 898 682 793 734 833 b 570 1003 734 980 672 1003 b 360 965 494 1003 424 987 l 369 938 b 569 975 440 963 516 975 b 703 899 666 975 703 951 b 533 787 703 828 622 787 l 399 787 l 394 763 l 526 763 b 711 674 624 763 711 750 b 465 540 711 586 622 540 b 258 576 393 540 315 553 z "},"⁰":{"ha":764,"x_min":0,"x_max":0,"o":"m 467 512 b 774 800 650 512 774 623 b 550 1003 774 938 670 1003 b 251 718 413 1003 251 908 b 467 512 251 575 353 512 z m 281 719 b 551 974 281 880 410 974 b 743 792 659 974 743 921 b 471 540 743 624 606 540 b 281 719 363 540 281 599 z "},"⁴":{"ha":764,"x_min":0,"x_max":0,"o":"m 627 615 l 613 531 l 639 531 l 653 615 l 755 615 l 759 640 l 658 640 l 719 994 l 679 994 l 281 641 l 276 615 z m 317 640 l 688 968 l 631 640 z "},"⁵":{"ha":764,"x_min":0,"x_max":0,"o":"m 283 594 l 270 568 b 504 513 329 535 415 513 b 774 684 640 513 774 567 b 581 818 774 786 694 818 b 369 767 499 818 421 792 l 422 970 l 753 970 l 758 994 l 404 994 l 340 754 l 363 737 b 580 790 432 767 497 790 b 744 681 709 790 744 746 b 507 541 744 582 611 541 b 283 594 427 541 351 560 z "},"⁶":{"ha":764,"x_min":0,"x_max":0,"o":"m 515 511 b 764 686 651 511 764 572 b 594 817 764 783 691 817 b 321 704 491 817 399 781 b 320 722 320 710 320 714 b 599 975 320 897 462 975 b 754 950 666 975 712 965 l 764 978 b 599 1003 724 992 669 1003 b 291 724 442 1003 291 909 b 515 511 291 569 397 511 z m 325 672 b 593 789 401 746 486 789 b 734 685 660 789 734 773 b 516 540 734 583 627 540 b 325 672 426 540 345 577 z "},"⁷":{"ha":764,"x_min":0,"x_max":0,"o":"m 356 529 l 378 510 l 819 970 l 824 994 l 304 994 l 300 970 l 784 970 z "},"⁸":{"ha":764,"x_min":0,"x_max":0,"o":"m 447 765 b 266 622 348 747 266 701 b 485 512 266 542 353 512 b 751 643 629 512 751 547 b 615 764 751 722 682 749 b 764 892 694 778 764 817 b 572 1003 764 965 683 1003 b 341 872 453 1003 341 961 b 447 765 341 806 395 782 z m 296 626 b 529 749 296 701 406 749 b 721 642 637 749 721 717 b 490 540 721 581 633 540 b 296 626 372 540 296 564 z m 371 874 b 569 978 371 937 451 978 b 735 891 674 978 735 947 b 532 776 735 817 631 776 b 371 874 458 776 371 809 z "},"⁹":{"ha":764,"x_min":0,"x_max":0,"o":"m 462 513 b 770 791 617 513 770 604 b 547 1003 770 945 665 1003 b 297 828 410 1003 297 943 b 467 697 297 730 370 697 b 740 810 570 697 663 733 b 741 792 741 805 741 799 b 463 541 741 617 599 541 b 299 567 392 541 344 551 l 290 539 b 462 513 331 524 389 513 z m 327 829 b 545 975 327 932 434 975 b 736 842 635 975 715 938 b 468 726 660 769 575 726 b 327 829 401 726 327 740 z "},"⁽":{"ha":382,"x_min":0,"x_max":0,"o":"m 424 908 l 405 931 b 263 637 331 868 263 785 b 333 385 263 526 298 448 l 358 399 b 292 628 329 450 292 546 b 424 908 292 765 344 842 z "},"⁾":{"ha":382,"x_min":0,"x_max":0,"o":"m 219 408 l 238 385 b 381 680 313 449 381 532 b 310 931 381 790 345 869 l 285 918 b 351 689 314 867 351 771 b 219 408 351 552 299 475 z "},"⁺":{"ha":382,"x_min":0,"x_max":0,"o":"m 290 648 l 265 506 l 292 506 l 316 648 l 438 648 l 442 672 l 320 672 l 343 802 l 317 802 l 294 672 l 172 672 l 167 648 z "},"⁻":{"ha":382,"x_min":0,"x_max":0,"o":"m 165 674 l 161 650 l 446 650 l 450 674 z "},"⁼":{"ha":382,"x_min":0,"x_max":0,"o":"m 151 592 l 147 568 l 431 568 l 435 592 z m 169 697 l 453 697 l 458 721 l 174 721 z "},"ẞ":{"ha":2042,"x_min":0,"x_max":0,"o":"m 1527 -8 b 1967 286 1815 -8 1967 75 b 1640 487 1967 467 1805 482 b 1292 644 1467 492 1292 486 b 1672 873 1292 789 1413 873 b 1986 815 1802 873 1931 834 l 1997 844 b 1658 904 1940 865 1814 904 b 1258 647 1408 904 1258 809 b 1617 456 1258 458 1441 460 b 1934 277 1778 452 1934 443 b 1533 24 1934 103 1798 24 b 1169 94 1376 24 1235 65 l 1156 63 b 1527 -8 1255 18 1409 -8 z m 139 63 b 510 -8 238 18 392 -8 b 950 286 799 -8 950 75 b 623 487 950 467 788 482 b 276 644 451 492 276 486 b 655 873 276 789 396 873 b 969 815 785 873 914 834 l 981 844 b 642 904 924 865 797 904 b 241 647 391 904 241 809 b 600 456 241 458 424 460 b 917 277 762 452 917 443 b 517 24 917 103 781 24 b 152 94 360 24 219 65 z "}," ":{"ha":694,"x_min":0,"x_max":0,"o":""}," ":{"ha":542,"x_min":0,"x_max":0,"o":""}," ":{"ha":1389,"x_min":0,"x_max":0,"o":""}}}
